<svg width="339" height="381" viewBox="0 0 339 381" fill="none" xmlns="http://www.w3.org/2000/svg">
<path d="M127.83 376.08L100.2 273.3" stroke="#7672B5" stroke-width="0.52" stroke-miterlimit="10"/>
<path d="M71.46 338.2L157.81 295.16" stroke="#7672B5" stroke-width="0.52" stroke-miterlimit="10"/>
<path d="M155.92 341.26C155.92 341.26 71.7802 301.6 69.6802 300.31" stroke="#7672B5" stroke-width="0.52" stroke-miterlimit="10"/>
<path d="M91.4202 363.01L131.9 276.12" stroke="#7672B5" stroke-width="0.52" stroke-miterlimit="10"/>
<path d="M68.5601 320.17L160.26 320.54" stroke="#7672B5" stroke-width="0.52" stroke-miterlimit="10"/>
<path d="M143.13 358L80.47 284.4" stroke="#7672B5" stroke-width="0.52" stroke-miterlimit="10"/>
<path d="M77.3501 348.02L145.35 286.12" stroke="#7672B5" stroke-width="0.52" stroke-miterlimit="10"/>
<path d="M115.34 270.24L110.96 375.15" stroke="#7672B5" stroke-width="0.52" stroke-miterlimit="10"/>
<path d="M251.63 235.75L274.66 327.78" stroke="#7672B5" stroke-width="0.52" stroke-miterlimit="10"/>
<path d="M255.3 329.69L269.93 236.24" stroke="#7672B5" stroke-width="0.52" stroke-miterlimit="10"/>
<path d="M285.04 322.96L238.65 240.88" stroke="#7672B5" stroke-width="0.52" stroke-miterlimit="10"/>
<path d="M235.71 320.44L289.07 245.97" stroke="#7672B5" stroke-width="0.52" stroke-miterlimit="10"/>
<path d="M222.85 304.21L303.16 262.75" stroke="#7672B5" stroke-width="0.52" stroke-miterlimit="10"/>
<path d="M217.36 288.01L307.8 281.68" stroke="#7672B5" stroke-width="0.52" stroke-miterlimit="10"/>
<path d="M300.91 307.67L221.09 260.15" stroke="#7672B5" stroke-width="0.52" stroke-miterlimit="10"/>
<path d="M216.7 273.14L305.55 295.43" stroke="#7672B5" stroke-width="0.52" stroke-miterlimit="10"/>
<path d="M203.57 299.9C204.34 299.13 205.57 299.14 206.34 299.9C213.21 308.08 220.14 315.22 227.18 320.55L224.44 323.32C219.02 317.08 211.7 310.04 203.6 302.67C202.83 301.9 202.81 300.68 203.58 299.91L203.57 299.9Z" fill="#9CA2A2"/>
<path d="M204.74 301.31C204.01 302.09 202.77 302.14 201.99 301.4C194.89 293.43 187.75 286.48 180.56 281.37L183.22 278.52C188.81 284.6 196.34 291.43 204.65 298.55C205.43 299.28 205.48 300.52 204.74 301.3V301.31Z" fill="#9CA2A2"/>
<path d="M240.003 319.875L217.818 327.805L219.309 331.977L241.494 324.046L240.003 319.875Z" fill="#9CA2A2"/>
<path d="M191.517 272.796L168.753 278.869L169.895 283.15L192.659 277.076L191.517 272.796Z" fill="#9CA2A2"/>
<path d="M213.78 150.55L216.78 156.99C216.56 157.06 216.65 165.19 195.27 178.25C169.75 194.31 143.5 199.07 144.72 220.64C150.81 251.66 201.8 220.48 207.17 247.2C212.54 273.92 178.44 276.9 176.48 276.98L176.38 272.33C176.38 272.33 207.72 272.37 203.15 248.36C198.5 226.31 137.31 262.35 138.11 215.82C138.57 188.64 208.31 175.46 213.8 150.53H213.78V150.55Z" fill="#1B938C"/>
<path d="M113.32 157.82C123.14 164.37 139.76 172.21 136.43 183.52C130.93 195.09 114.36 187.47 102.03 194.5C87.4998 203.09 94.6398 213.58 96.5098 213.54C99.0298 214.4 101.89 212.76 102.94 210.14L103.47 208.77L100.2 208.84C99.6698 209.71 99.1298 210.34 98.5398 210.53C96.1598 211.28 94.4798 207.98 98.1998 201.86C101.2 197.22 109.24 195.34 115.5 194.92C124.66 194.32 138.78 194.31 141.73 184.27C145.34 171.98 130.49 165.51 120.43 158.75C119.43 158.07 118.5 157.43 117.65 156.83" fill="#1B938C"/>
<path d="M95.5899 220.36C93.8599 220.27 92.1499 219.86 90.4399 219.07L90.5899 221.99C92.0899 222.19 93.4799 222.52 94.6299 223.14L95.5799 220.36H95.5899Z" fill="#61C6C3"/>
<path d="M137.09 252.28C136.36 249.68 136.13 246.95 136.1 243.96C135.82 242.85 134.74 242.9 135.03 244.69C135.75 247.73 135.66 249.92 134.54 252.53L137.09 252.28Z" fill="#DDDDDD"/>
<path d="M231.79 231.37C232.88 230.62 234.14 232.24 233.03 233.1L227.62 237.02C226.56 237.86 225.12 236.3 226.38 235.29L231.79 231.37Z" fill="#9CA2A2"/>
<path d="M122.95 261.04C124.13 261.17 124 263.22 122.76 263.15L116.87 262.61C115.67 262.56 115.63 260.44 117.06 260.5L122.95 261.04Z" fill="#9CA2A2"/>
<path d="M213.64 149.69L216.64 156.13C216.42 156.2 216.51 164.33 195.13 177.39C169.61 193.45 143.36 198.21 144.58 219.78C150.67 250.8 201.66 219.62 207.03 246.34C212.4 273.06 178.3 276.04 176.34 276.12L176.24 271.47C176.24 271.47 207.58 271.51 203.01 247.5C198.36 225.45 137.17 261.49 137.97 214.96C138.43 187.78 208.17 174.6 213.66 149.67H213.64V149.69Z" stroke="white" stroke-width="1.04" stroke-miterlimit="10"/>
<path d="M90.5999 221.98C92.0999 222.18 93.4899 222.51 94.6399 223.13L95.5899 220.35C93.8599 220.26 92.1499 219.85 90.4399 219.06" stroke="white" stroke-width="1.04" stroke-miterlimit="10"/>
<path d="M113.31 157.84C123.13 164.39 139.75 172.23 136.42 183.54C130.92 195.11 114.35 187.49 102.02 194.52C87.4898 203.11 94.6298 213.6 96.4998 213.56C99.0198 214.42 101.88 212.78 102.93 210.16L103.32 208.87" stroke="white" stroke-width="1.04" stroke-miterlimit="10"/>
<path d="M99.43 209.93C99.15 210.24 98.85 210.44 98.55 210.55C96.17 211.3 94.49 208 98.21 201.88C101.21 197.24 109.25 195.36 115.51 194.94C124.67 194.34 138.79 194.33 141.74 184.29C145.35 172 130.5 165.53 120.44 158.77C119.44 158.09 118.51 157.45 117.66 156.85" stroke="white" stroke-width="1.04" stroke-miterlimit="10"/>
<path d="M104.61 208.22C106.44 207.85 107.11 207.94 109.36 208.91C111.61 209.88 117.76 213.87 117.76 213.87L118.86 210.68C118.86 210.68 111.6 205.77 110.57 205.3C109.54 204.83 107.21 203.69 104.92 204.19C101.33 204.99 97.9899 205.85 95.7399 206.35C91.5299 207.27 83.38 212.74 86.47 223.66C89.56 234.59 103.85 232.78 103.85 232.78L103.38 229.07C102.93 229.12 92.2199 230.3 90.0599 222.63C89.1599 219.43 89.39 216.64 90.76 214.35C92.34 211.73 95.0799 210.29 96.5599 209.97C96.5599 209.97 102.78 208.53 104.61 208.18V208.21V208.22Z" fill="#DDDDDD"/>
<path d="M97.72 232.09L101.65 229.04" stroke="white" stroke-width="1.04" stroke-miterlimit="10"/>
<path d="M92.25 230.27L96.96 228.34" stroke="white" stroke-width="1.04" stroke-miterlimit="10"/>
<path d="M88.5801 226.67L93.1001 226.24" stroke="white" stroke-width="1.04" stroke-miterlimit="10"/>
<path d="M86.6699 220.97L90.7899 222.51" stroke="white" stroke-width="1.04" stroke-miterlimit="10"/>
<path d="M88.96 211.3L90.89 215.42" stroke="white" stroke-width="1.04" stroke-miterlimit="10"/>
<path d="M86.74 216.4L90.25 218.85" stroke="white" stroke-width="1.04" stroke-miterlimit="10"/>
<path d="M93.79 207.21L93.23 212.12" stroke="white" stroke-width="1.04" stroke-miterlimit="10"/>
<path d="M98.92 205.66L97.28 209.85" stroke="white" stroke-width="1.04" stroke-miterlimit="10"/>
<path d="M102.31 204.73L100.94 208.95" stroke="white" stroke-width="1.04" stroke-miterlimit="10"/>
<path d="M105.32 204.25L103.71 208.38" stroke="white" stroke-width="1.04" stroke-miterlimit="10"/>
<path d="M105.46 208.08C107.29 207.71 107.96 207.8 110.21 208.77C112.46 209.74 118.61 213.73 118.61 213.73L119.71 210.54C119.71 210.54 112.45 205.63 111.42 205.16C110.39 204.69 108.06 203.55 105.77 204.05C102.18 204.85 98.84 205.71 96.59 206.21C92.38 207.13 84.23 212.6 87.32 223.52C90.41 234.45 104.7 232.64 104.7 232.64L104.23 228.93C103.78 228.98 93.0701 230.16 90.9101 222.49C90.0101 219.29 90.24 216.5 91.61 214.21C93.19 211.59 95.9301 210.15 97.4101 209.83C97.4101 209.83 103.63 208.39 105.46 208.04V208.07V208.08Z" stroke="white" stroke-width="1.04" stroke-miterlimit="10"/>
<path d="M108.62 204.16L106.69 207.88" stroke="white" stroke-width="1.04" stroke-miterlimit="10"/>
<path d="M111.3 205.16L109.09 208.22" stroke="white" stroke-width="1.04" stroke-miterlimit="10"/>
<path d="M113.9 206.86L111.22 209.22" stroke="white" stroke-width="1.04" stroke-miterlimit="10"/>
<path d="M91.96 208.69C89.78 210.28 88.4 212.15 87.98 214.34C87.14 210.99 86.31 209.4 83.01 209.27L85.2 205.01C86.92 202.44 87.21 203.58 87.58 204.98C88.22 206.75 89.09 208.68 91.94 208.69H91.96Z" fill="#9CA2A2"/>
<path d="M84.75 204.6C85.63 203.97 86.23 204.33 85.96 205.39C85.69 206.45 85.56 206.86 84.86 208.81C84.3 209.48 82.14 209.63 81.91 210.18C81.18 211.94 82.33 215.61 82.07 217.95C81.81 220.29 79.64 222.58 79.64 222.58C79 223.26 78.01 222.56 78.43 221.79C78.43 221.79 80.6 219.51 80.86 217.16C81.12 214.81 79.64 211.01 80.36 209.25C81.08 207.49 84.73 204.6 84.73 204.6H84.75Z" fill="#9CA2A2"/>
<path d="M85.8901 204.91C87.1001 203.42 87.3701 204.44 87.6901 205.67C88.3301 207.44 89.2001 209.37 92.0501 209.38C89.8701 210.97 88.4901 212.84 88.0701 215.03C87.4001 212.3 86.4101 210.51 84.3801 209.96" stroke="white" stroke-width="1.04" stroke-linejoin="round"/>
<path d="M84.02 205.5C84.9 204.87 85.5 205.23 85.23 206.29C84.96 207.35 84.83 207.76 84.13 209.71C83.57 210.38 81.41 210.53 81.18 211.08C80.45 212.84 81.6 216.51 81.34 218.85C81.08 221.19 78.91 223.48 78.91 223.48C78.27 224.16 77.28 223.46 77.7 222.69C77.7 222.69 79.59 220.28 79.84 217.93C80.09 215.58 78.74 211.73 79.45 209.97C80.16 208.21 84 205.49 84 205.49V205.51L84.02 205.5Z" stroke="white" stroke-width="1.04" stroke-miterlimit="10"/>
<path d="M211.59 292.55C218.05 321.82 245.26 343.24 274.53 336.78C303.78 330.3 319.13 298.03 312.67 268.76C306.21 239.5 277.18 222.74 247.92 229.2C218.66 235.66 205.13 263.28 211.59 292.55ZM219.55 291C214.13 266.46 225.63 243.27 250.4 237.8C275.17 232.33 299.71 246.34 305.13 270.87C310.55 295.42 297.51 322.52 272.74 328C247.95 333.48 224.97 315.55 219.55 291.02V291Z" fill="#7672B5"/>
<path d="M225.51 306.27C216.61 300.4 212.65 286.77 210.58 270.21C209.6 277.31 209.93 284.88 211.61 292.54C218.07 321.81 245.28 343.23 274.55 336.77C300.95 330.95 316.02 304.09 313.97 277.41C312.1 293.45 308.23 306.51 297.99 310.21C292.2 318.99 283.56 325.62 272.61 328.05C253.35 332.3 235.19 322.42 225.5 306.3V306.28L225.51 306.27Z" fill="#6B5CA8"/>
<path d="M60.9201 329.97C67.4301 359.41 93.3501 385.52 122.43 379.11C151.5 372.68 175.07 339.84 168.57 310.39C164.79 281.03 132.22 257.92 100.07 264.27C70.8701 270.02 54.4201 300.53 60.9301 329.97H60.9201ZM70.0501 328.95C64.5801 304.21 78.5201 279.12 102.95 273.72C127.4 268.33 153.85 285.33 159.31 310.07C164.78 334.81 146.19 364.85 121.75 370.26C97.3001 375.67 75.5101 353.69 70.0401 328.96L70.0501 328.95Z" fill="#7672B5"/>
<path d="M110.96 326.66C114.036 326.66 116.53 324.166 116.53 321.09C116.53 318.014 114.036 315.52 110.96 315.52C107.884 315.52 105.39 318.014 105.39 321.09C105.39 324.166 107.884 326.66 110.96 326.66Z" fill="#9CA2A2"/>
<path d="M257.17 274.33C257.17 274.33 259.22 274.86 259.47 274.66C259.72 274.46 259.52 274.02 259.88 273.96C260.24 273.9 260.6 275.09 261.29 274.75C261.98 274.41 261.66 273.9 262.13 274.07C262.6 274.24 263.33 275.65 263.83 275.57C264.33 275.49 264.94 274.3 265.18 274.37C265.42 274.44 265.92 275.95 266.36 275.92C266.8 275.89 267.23 274.76 267.58 275.13C267.93 275.5 268.01 276.69 268.45 276.94C268.89 277.19 270.19 277.27 270.31 277.85C270.43 278.43 270.08 278.9 270.14 279.17C270.2 279.44 271.99 280.19 271.93 280.84C271.87 281.49 271.2 281.96 271.3 282.36C271.4 282.76 272.46 283.61 272.37 284.12C272.28 284.63 271.35 285.39 271.34 285.97C271.33 286.55 272.42 287.32 271.95 287.71C271.48 288.1 270.57 288.72 270.36 289.03C270.15 289.34 271.11 290.66 270.62 290.97C270.13 291.28 269.09 290.5 268.67 290.62C268.25 290.74 268.29 292.84 267.85 292.91C267.41 292.98 266.44 292.45 266.06 292.43C265.68 292.41 265.16 293.8 264.62 293.82C264.08 293.84 263.67 293.25 263.34 293.26C263.01 293.27 262.07 293.87 261.68 293.83C261.29 293.79 261.18 293.21 260.83 293.11C260.48 293.01 259.82 293.69 259.45 293.58C259.08 293.47 258.58 292.53 258.25 292.55C257.92 292.57 257.43 293.09 257.03 292.82C256.63 292.55 256.78 291.51 256.48 291.37C256.18 291.23 255.26 291.51 254.77 290.98C254.28 290.45 254.89 289.45 254.71 289.22C254.53 288.99 253.75 289.01 253.48 288.58C253.21 288.15 253.43 287.4 253.46 287.06C253.49 286.72 252.69 287.1 252.6 286.51C252.51 285.92 252.74 285.09 252.92 284.58C253.1 284.07 251.92 284.02 252.18 283.38C252.44 282.74 252.66 282.3 252.8 281.69C252.94 281.08 252.2 280.82 252.42 279.96C252.64 279.1 253.94 279.17 254.47 278.89C255 278.61 254.27 277.24 254.81 276.86C255.35 276.48 256.37 276.75 256.81 276.42C257.25 276.09 256.48 274.81 257.26 274.32L257.18 274.37L257.17 274.33Z" fill="#C16EAC"/>
<path d="M258.24 276.28C258.24 276.28 259.85 276.7 260.05 276.55C260.25 276.4 260.09 276.04 260.38 275.99C260.67 275.94 260.96 276.88 261.5 276.62C262.04 276.36 261.8 275.96 262.17 276.09C262.54 276.22 263.13 277.36 263.52 277.28C263.91 277.2 264.41 276.26 264.59 276.32C264.77 276.38 265.18 277.57 265.52 277.55C265.86 277.53 266.21 276.62 266.49 276.92C266.77 277.22 266.83 278.18 267.18 278.37C267.53 278.56 268.57 278.64 268.66 279.1C268.75 279.56 268.46 279.94 268.51 280.16C268.56 280.38 269.96 280.98 269.93 281.49C269.9 282 269.35 282.37 269.44 282.69C269.53 283.01 270.37 283.68 270.29 284.08C270.21 284.48 269.49 285.09 269.47 285.54C269.45 285.99 270.33 286.61 269.95 286.92C269.57 287.23 268.85 287.71 268.68 287.97C268.51 288.23 269.29 289.26 268.89 289.51C268.49 289.76 267.67 289.14 267.34 289.23C267.01 289.32 267.05 290.99 266.69 291.05C266.33 291.11 265.58 290.69 265.26 290.67C264.94 290.65 264.54 291.75 264.1 291.77C263.66 291.79 263.35 291.33 263.08 291.32C262.81 291.31 262.07 291.8 261.77 291.76C261.47 291.72 261.37 291.26 261.1 291.18C260.83 291.1 260.3 291.62 260 291.55C259.7 291.48 259.31 290.73 259.05 290.74C258.79 290.75 258.38 291.16 258.08 290.95C257.78 290.74 257.9 289.93 257.65 289.79C257.4 289.65 256.68 289.88 256.28 289.47C255.88 289.06 256.37 288.26 256.23 288.08C256.09 287.9 255.47 287.91 255.25 287.57C255.03 287.23 255.2 286.63 255.23 286.36C255.26 286.09 254.62 286.39 254.55 285.93C254.48 285.47 254.68 284.8 254.81 284.4C254.94 284 254.02 283.95 254.22 283.44C254.42 282.93 254.59 282.59 254.71 282.1C254.83 281.61 254.23 281.42 254.4 280.73C254.57 280.04 255.61 280.1 256.03 279.87C256.45 279.64 255.87 278.55 256.3 278.25C256.73 277.95 257.55 278.17 257.89 277.91C258.23 277.65 257.63 276.64 258.25 276.24L258.21 276.3L258.24 276.28Z" fill="#D1A6CD"/>
<path d="M126.41 223.95L131.52 222.67L132.22 225.07L199.27 208.16L199.11 202.93L203.45 202.02L203.66 208.46L206.76 212.25L125.71 231.55L126.41 223.95Z" fill="#C16EAC"/>
<path d="M207.17 300.83L204.29 208.72L199.51 208.97L201.82 299.38L207.17 300.83Z" fill="#C16EAC"/>
<path d="M260.81 283.07L202.91 212.73L203.69 208.54L263.82 280.82L260.81 283.07Z" fill="#C16EAC"/>
<path d="M205 300.6L127.52 251.54L128.64 246.74L206.33 296.23L205 300.6Z" fill="#C16EAC"/>
<path d="M265.86 284.83L205.67 303.49L205.34 300.13L264.38 283.28L265.86 284.83Z" fill="#C16EAC"/>
<path d="M125.98 229.94L132.19 228.57L128.43 258.45L129.1 258.71C129.1 258.71 122.64 311.05 122.03 312.38C120.97 314.62 112.86 320.93 112.86 320.93C113.08 322.38 111.28 323.22 110.36 322.68L110.61 322.06C110.87 322.07 111.94 321.86 112.01 321.26C112.05 320.88 111.87 320.39 111.48 320.28C110.86 319.99 110.08 320.64 110.19 320.78L109.64 320.41C109.98 319.44 111.39 319.18 111.99 319.68C111.99 319.68 117.69 312.54 118.8 310.09C119.45 308.67 122.83 258.03 122.83 258.03L123.74 258.01L125.99 229.95H125.97L125.98 229.94Z" fill="#C16EAC"/>
<path d="M120.39 213.18L104.82 216.61C103.35 216.93 100.6 218.38 99.02 220.99C97.65 223.28 97.42 226.07 98.32 229.27C100.48 236.95 111.19 235.77 111.64 235.71L112.11 239.42C112.11 239.42 97.82 241.23 94.73 230.3C91.64 219.37 99.79 213.91 104 212.99C108.21 212.07 119.89 209.49 119.89 209.49" fill="#DDDDDD"/>
<path d="M199.89 202.88L198.63 172.47L201.66 171.81L202.73 202.19L199.89 202.88Z" fill="#9CA2A2"/>
<path d="M220.69 175.72C232.85 173.78 231.5 158.51 221.13 159.6C216.39 160.19 201.74 167.19 194.66 169.85C187.57 172.51 182.48 174 181.41 174.38C178.05 175.85 179.47 180.93 183.28 179.91C186.27 179.31 191.85 177.55 199.95 175.35C208.05 173.15 214.31 177.35 220.68 175.71H220.7L220.69 175.72Z" fill="#C16EAC"/>
<path d="M259.48 278.11C259.48 278.11 260.67 278.41 260.81 278.3C260.95 278.19 260.84 277.94 261.04 277.89C261.24 277.84 261.46 278.54 261.85 278.34C262.24 278.14 262.07 277.85 262.33 277.95C262.59 278.05 263.02 278.86 263.31 278.81C263.6 278.76 263.97 278.09 264.09 278.12C264.21 278.15 264.51 279.02 264.76 279.01C265.01 279 265.25 278.35 265.46 278.56C265.67 278.77 265.71 279.47 265.96 279.6C266.21 279.73 266.95 279.79 267.03 280.13C267.11 280.47 266.9 280.73 266.93 280.9C266.96 281.07 267.99 281.5 267.96 281.87C267.93 282.24 267.54 282.52 267.59 282.74C267.64 282.96 268.27 283.45 268.21 283.74C268.15 284.03 267.61 284.45 267.61 284.8C267.61 285.15 268.23 285.59 267.97 285.81C267.71 286.03 267.19 286.39 267.06 286.57C266.93 286.75 267.47 287.5 267.2 287.69C266.93 287.88 266.31 287.41 266.08 287.48C265.85 287.55 265.88 288.74 265.61 288.8C265.34 288.86 264.8 288.55 264.57 288.53C264.34 288.51 264.05 289.31 263.74 289.33C263.43 289.35 263.2 289.01 263.01 289.01C262.82 289.01 262.26 289.36 262.05 289.34C261.84 289.32 261.76 288.98 261.56 288.93C261.36 288.88 260.96 289.25 260.76 289.2C260.56 289.15 260.26 288.6 260.07 288.61C259.88 288.62 259.58 288.92 259.36 288.76C259.14 288.6 259.2 288.01 259.03 287.92C258.86 287.83 258.34 288 258.05 287.69C257.76 287.38 258.12 286.82 258.01 286.68C257.9 286.54 257.46 286.54 257.3 286.3C257.14 286.06 257.28 285.6 257.28 285.43C257.28 285.26 256.83 285.47 256.78 285.13C256.73 284.79 256.87 284.29 256.97 284.01C257.07 283.73 256.41 283.68 256.54 283.33C256.67 282.98 256.79 282.73 256.89 282.36C256.99 281.99 256.56 281.85 256.68 281.36C256.8 280.87 257.55 280.9 257.86 280.75C258.17 280.6 257.76 279.8 258.06 279.58C258.36 279.36 258.96 279.52 259.21 279.32C259.46 279.12 259.02 278.39 259.47 278.1H259.5L259.48 278.11Z" fill="#C16EAC"/>
<path d="M127.17 223.97L126.81 211.18L120.59 212.6L120.02 210L130.2 207.75L130.59 223.23L127.17 223.97Z" fill="#9CA2A2"/>
<path d="M96.1 366.08C86.88 368.26 68.86 351.66 64.78 342.21C74.8 366.16 97.44 384.6 122.39 379.1C149.65 373.07 172.19 343.4 169.42 315.41C165.94 331.58 160.61 345.51 148.64 351.92C141.75 361.02 132.29 367.94 121.75 370.26C112.59 372.28 103.81 370.47 96.11 366.1" fill="#6B5CA8"/>
<path d="M127.89 272.88C143.78 277.67 157.68 293.06 161.55 310.55C167.39 336.96 148.48 367.44 122.07 373.27C95.6601 379.11 72.1701 355.73 66.3401 329.32C61.6901 303.45 75.6101 277.91 101.04 271.63C105.46 270.15 117.5 270.58 122.15 271.62" stroke="white" stroke-width="1.56" stroke-miterlimit="10"/>
<path d="M216.84 291.13C211 264.72 223.23 241.13 249.63 235.3C276.03 229.48 301.67 244.77 307.5 271.18C313.34 297.59 299.13 325.25 272.72 331.08C246.32 336.9 222.67 317.54 216.84 291.13Z" stroke="white" stroke-width="1.56" stroke-miterlimit="10"/>
<path d="M99.16 216.3C96.98 217.89 95.6 219.76 95.18 221.95C94.34 218.6 93.51 217.01 90.21 216.88L92.4 212.62C94.12 210.05 94.41 211.19 94.78 212.59C95.42 214.36 96.29 216.29 99.14 216.3H99.16Z" fill="#9CA2A2"/>
<path d="M93.2202 213.22C93.0802 214.31 93.0202 214.72 92.5802 216.76C92.1202 217.5 90.0002 217.95 89.8502 218.51C89.3602 220.34 90.9902 223.83 91.0502 226.18C91.1102 228.53 89.2602 231.09 89.2602 231.09C88.7202 231.86 87.6402 231.28 87.9502 230.48C87.9502 230.48 89.8002 227.94 89.7402 225.57C89.6802 223.2 87.7002 219.63 88.1902 217.79C88.6802 215.95 91.9102 212.6 91.9102 212.6C92.7002 211.86 93.3602 212.12 93.2202 213.21V213.22Z" fill="#9CA2A2"/>
<path d="M194.39 210.86L195.17 213.96L194.27 213.7L194.13 213.14L192.95 212.8L192.72 211.89L193.9 212.23L193.71 211.51L193.43 211.43L193.57 211.99L192.67 211.73L192.57 211.31L193.34 210.55L194.39 210.84V210.86Z" fill="#DAA4CB"/>
<path d="M190.41 213.36L191.33 213.62L191.37 213.84L191.65 213.92L191.55 213.53L190.37 213.19L190.04 211.91L190.81 211.15L191.86 211.44L192.5 214.02L191.73 214.78L190.68 214.48L190.39 213.35H190.41V213.36ZM191.28 212.08L191 212L191.14 212.52L191.42 212.6L191.28 212.08Z" fill="#DAA4CB"/>
<path d="M188.8 212.58L189.51 215.36L188.61 215.1L188.06 212.91L187.78 212.83L188.49 215.61L187.59 215.35L186.92 212.71L187.69 211.95L188.28 212.12L188.72 211.68L189.77 211.97L190.55 215.07L189.65 214.81L189.1 212.62L188.82 212.54L188.79 212.58H188.8Z" fill="#DAA4CB"/>
<path d="M185.6 213.39L186.31 216.17L185.41 215.91L184.86 213.72L184.58 213.64L185.29 216.42L184.39 216.16L183.72 213.52L184.49 212.76L185.08 212.93L185.52 212.49L186.57 212.78L187.35 215.88L186.45 215.62L185.9 213.43L185.62 213.35L185.59 213.39H185.6Z" fill="#DAA4CB"/>
<path d="M182 215.5L182.92 215.76L182.96 215.98L183.24 216.06L183.14 215.67L181.96 215.33L181.63 214.05L182.4 213.29L183.45 213.58L184.09 216.16L183.32 216.92L182.27 216.62L181.98 215.49H182V215.5ZM182.71 214.24L182.43 214.16L182.57 214.68L182.85 214.76L182.71 214.24Z" fill="#DAA4CB"/>
<path d="M181.11 215.45L180.23 216.31L180.32 216.63L180.6 216.71L180.46 216.14L181.36 216.4L181.46 216.82L180.69 217.58L179.64 217.28L179.34 216.07L180.22 215.21L180.14 214.91L179.86 214.83L180 215.39L179.1 215.13L179 214.71L179.77 213.95L180.82 214.24L181.12 215.45V215.47L181.11 215.45Z" fill="#DAA4CB"/>
<path d="M177.89 215L178.67 218.1L177.77 217.84L177.22 215.65L176.94 215.57L177.65 218.35L176.75 218.09L176.08 215.45L176.85 214.69L177.9 214.98V215H177.89Z" fill="#DAA4CB"/>
<path d="M172.69 217.52L173.59 217.78L173.72 218.27L174 218.35L173.75 217.36L172.57 217.02L172.34 216.11L173.52 216.45L173.29 215.56L174.19 215.82L174.86 218.46L174.09 219.22L173.04 218.92L172.69 217.52Z" fill="#DAA4CB"/>
<path d="M172.49 216.31L173.3 219.47L172.4 219.21L172.19 218.37L171.91 218.29L172.28 219.72L171.38 219.46L170.57 216.3L171.47 216.56L171.67 217.39L171.95 217.47L171.58 216.04L172.48 216.3V216.32L172.49 216.31Z" fill="#DAA4CB"/>
<path d="M168.52 218.87L169.44 219.13L169.48 219.35L169.76 219.43L169.66 219.04L168.48 218.7L168.15 217.42L168.92 216.66L169.97 216.95L170.61 219.53L169.84 220.29L168.79 219.99L168.5 218.86H168.52V218.87ZM169.58 217.57L169.3 217.49L169.44 218.01L169.72 218.09L169.58 217.57Z" fill="#DAA4CB"/>
<path d="M167.1 218.07L167.81 220.85L166.91 220.59L166.36 218.4L166.08 218.32L166.79 221.1L165.89 220.84L165.22 218.2L165.99 217.44L166.58 217.61L167.02 217.17L168.07 217.46L168.85 220.56L167.95 220.3L167.4 218.11L167.12 218.03L167.09 218.07H167.1Z" fill="#DAA4CB"/>
<path d="M164.31 220.34L164.4 220.66L164.68 220.74L164.54 220.17L165.44 220.43L165.54 220.85L164.77 221.61L163.72 221.32L163.42 220.11L164.3 219.25L164.22 218.95L163.94 218.87L164.08 219.43L163.18 219.17L163.08 218.75L163.85 217.99L164.9 218.28L165.2 219.49L164.32 220.35L164.31 220.34Z" fill="#DAA4CB"/>
<path d="M204.61 230.82L205.02 240.76L202.86 239.62L202.77 237.3L199.94 235.83L199.85 233.39L202.68 234.86L202.57 232.11L201.9 231.76L201.98 233.76L199.82 232.62L199.76 231.02L202.15 229.51L204.64 230.83V230.81L204.61 230.82Z" fill="#DDDDDD"/>
<path d="M202.2 251.08L202.06 247.84L204.22 248.98L204.3 251L205.81 250.93V253.05L204.37 253.1L204.51 256.34L202.35 255.2L202.27 253.18L200.25 253.26V251.14L202.17 251.06H202.19L202.2 251.08Z" fill="#DDDDDD"/>
<path d="M201.76 267.53L203.92 268.67L203.98 269.99L204.65 270.34L204.54 267.68L201.71 266.21L201.62 263.77L204.45 265.24L204.35 262.86L206.51 264L206.79 271.09L204.4 272.6L201.91 271.28L201.76 267.5V267.53Z" fill="#DDDDDD"/>
<path d="M191.56 210.03L199.23 208.04V202.96L203.46 202.01L203.68 208.53L208.57 214.4C206.72 213.98 205.71 214.49 206.46 216.95L204.58 214.66L204.72 216.76C202.51 214.66 200.5 214.79 199.72 216.92L199.64 213.81L198.36 214.14C198.39 213 195.57 208.81 191.55 210.03H191.56Z" fill="#9B568E"/>
<path d="M134.88 225.06L131.83 225.13L131.5 222.84L126.36 223.98L125.69 233.74C125.69 233.74 127.91 233.58 127.75 237.96C127.59 242.34 125.12 242.01 125.12 242.01L124.26 254.31C124.75 251.27 128.45 251.03 128.21 254.9L129.02 252.54L131.52 253.58C129.69 252.35 130.68 249.11 132.9 250.1L129.43 247.29L131.49 230.26L135.35 228.89C132.72 229.09 132.13 225.64 134.87 225.06H134.88Z" fill="#9B568E"/>
<path d="M128.84 258.66L128.35 265.4L128.12 262.88L126.9 265.34C127.06 260.34 123.7 261.02 123.71 265.13L122.9 261.7L122.45 264.21L122.84 258.05L128.83 258.68V258.66H128.84Z" fill="#9B568E"/>
<path d="M224.78 160.13L222.16 159.66L216.5 160.62L210.12 175.23L218.22 176.15C220.62 174.17 225.6 169.99 224.77 160.15V160.13H224.78Z" fill="#9B568E"/>
<path d="M164.19 339.93L163.47 332.85L167.67 326.81L165.01 318.04L167.34 310.71L162.13 304.78L162.36 296.89L155.62 291.65L154.18 284.7L146.95 281.34L144.2 275.6L138.94 274.99L135.97 270.28L127.99 269.17" stroke="#6B5CA8" stroke-width="2.59" stroke-linejoin="round"/>
<path d="M121.5 266.74L117.31 267.15L111.6 264.43L105.04 267.41L98.07 266.27L92.8 270.85L85.74 271.51L82.32 277.16L75.99 279.09L74.17 285.19L68.45 288.94L68.43 293.99L64.21 298.04L64.76 303.61L61.64 308.4L63.03 313.98L61 319.46L63.36 326.38L63.07 332.32L66.53 338.16L67.25 343.89L70.94 347.89L72.03 352.95L75.96 355.28L78.65 361.33L83.42 363.83" stroke="#6B5CA8" stroke-width="2.59" stroke-linejoin="round"/>
<path d="M225.61 241.97L229.08 236.66L235.75 236.39L240.44 232.06L246.75 233.31L251.9 229.89L257.88 232.15L263.19 229.81L267.56 232.97L274.38 231.91L279.1 236.13L285.1 236.25L288.73 241.31L294.99 243.03L297.77 248.95L302.37 250.77L303.33 256.25L307.54 259.87L307.61 265.61L310.87 269.41L309.99 276.47L312.32 281.25L310.04 287.64L310.97 292.91L308.62 296.32L308.3 302.71" stroke="#6B5CA8" stroke-width="2.59" stroke-linejoin="round"/>
<path d="M211.87 285.71L213.3 281.34L211.34 277.19L213.45 272.52L212.28 267.91L214.96 264.64L214.54 259.52L218.41 255.86L219.42 249.95L225.51 246.89" stroke="#6B5CA8" stroke-width="2.59" stroke-linejoin="round"/>
<path d="M199.01 203.74L203.59 203L203.65 204.79L199.04 205.83L199.01 203.74Z" fill="#737576"/>
<path d="M212.42 219.86L210.5 217.5L209.77 220.4L211.64 222.66L212.42 219.86Z" fill="#9B568E"/>
<path d="M224.99 234.81L222.98 232.58L222.27 235.48L224.13 237.74L224.99 234.81Z" fill="#9B568E"/>
<path d="M251.89 267.07L249.9 264.83L249.01 268.01L250.92 270.42L251.89 267.07Z" fill="#9B568E"/>
<path d="M141.87 255.44L138.3 258.64L135.73 257.11L139.84 253.73L141.87 255.44Z" fill="#9B568E"/>
<path d="M156.16 264.3L151.66 266.85L149.75 265.63L154.14 262.79L156.16 264.3Z" fill="#9B568E"/>
<path d="M130.57 216.33L127 217.57L126.73 214.81L130.51 213.46L130.57 216.33Z" fill="#737576"/>
<path d="M199.63 190.01L199.79 193.94L202.36 191.98L202.02 187.9L199.63 190.01Z" fill="#737576"/>
<path d="M201.48 178.65L199.06 180.51L198.72 175.26L200.85 174.76L201.48 178.65Z" fill="#737576"/>
<path d="M206.68 284.93L206.8 288.48" stroke="white" stroke-width="1.04" stroke-miterlimit="10"/>
<path d="M257.17 274.33C257.17 274.33 259.22 274.86 259.47 274.66C259.72 274.46 259.52 274.02 259.88 273.96C260.24 273.9 260.6 275.09 261.29 274.75C261.98 274.41 261.66 273.9 262.13 274.07C262.6 274.24 263.33 275.65 263.83 275.57C264.33 275.49 264.94 274.3 265.18 274.37C265.42 274.44 265.92 275.95 266.36 275.92C266.8 275.89 267.23 274.76 267.58 275.13C267.93 275.5 268.01 276.69 268.45 276.94C268.89 277.19 270.19 277.27 270.31 277.85C270.43 278.43 270.08 278.9 270.14 279.17C270.2 279.44 271.99 280.19 271.93 280.84C271.87 281.49 271.2 281.96 271.3 282.36C271.4 282.76 272.46 283.61 272.37 284.12C272.28 284.63 271.35 285.39 271.34 285.97C271.33 286.55 272.42 287.32 271.95 287.71C271.48 288.1 270.57 288.72 270.36 289.03C270.15 289.34 271.11 290.66 270.62 290.97C270.13 291.28 269.09 290.5 268.67 290.62C268.25 290.74 268.29 292.84 267.85 292.91C267.41 292.98 266.44 292.45 266.06 292.43C265.68 292.41 265.16 293.8 264.62 293.82C264.08 293.84 263.67 293.25 263.34 293.26C263.01 293.27 262.07 293.87 261.68 293.83C261.29 293.79 261.18 293.21 260.83 293.11C260.48 293.01 259.82 293.69 259.45 293.58C259.08 293.47 258.58 292.53 258.25 292.55C257.92 292.57 257.43 293.09 257.03 292.82C256.63 292.55 256.78 291.51 256.48 291.37C256.18 291.23 255.26 291.51 254.77 290.98C254.28 290.45 254.89 289.45 254.71 289.22C254.53 288.99 253.75 289.01 253.48 288.58C253.21 288.15 253.43 287.4 253.46 287.06C253.49 286.72 252.69 287.1 252.6 286.51C252.51 285.92 252.74 285.09 252.92 284.58C253.1 284.07 251.92 284.02 252.18 283.38C252.44 282.74 252.66 282.3 252.8 281.69C252.94 281.08 252.2 280.82 252.42 279.96C252.64 279.1 253.94 279.17 254.47 278.89C255 278.61 254.27 277.24 254.81 276.86C255.35 276.48 256.37 276.75 256.81 276.42C257.25 276.09 256.48 274.81 257.26 274.32L257.18 274.37L257.17 274.33Z" fill="#9B568E" stroke="#FDFEFE" stroke-width="1.04" stroke-miterlimit="10"/>
<path d="M204.58 214.67L204.59 214.53" stroke="white" stroke-width="1.04" stroke-miterlimit="10"/>
<path d="M120.67 213.1L119.88 209.49C119.88 209.49 108.2 212.07 103.99 212.99C102.21 213.38 99.74 214.58 97.71 216.65" stroke="white" stroke-width="1.04" stroke-miterlimit="10"/>
<path d="M95.08 220.56C93.97 223.14 93.61 226.37 94.74 230.32C97.83 241.25 112.12 239.44 112.12 239.44L111.65 235.73C111.2 235.78 100.49 236.96 98.33 229.29C97.43 226.09 97.66 223.3 99.03 221.01C100.61 218.39 103.35 216.95 104.83 216.63L120.72 213.13" stroke="white" stroke-width="1.04" stroke-miterlimit="10"/>
<path d="M201.37 288.29L199.64 213.82L131.56 230.25L129.5 247.28L197 290.46" stroke="white" stroke-width="1.04" stroke-miterlimit="10"/>
<path d="M194.23 293.94L129.08 252.54L128.42 258.48" stroke="white" stroke-width="1.04" stroke-miterlimit="10"/>
<path d="M123.95 257.97C125.33 239.75 126.4 223.77 126.4 223.77L131.49 222.65L132.06 225.24L199.21 208.04V202.96L200.31 202.69L199.1 174.71" stroke="white" stroke-width="1.04" stroke-miterlimit="10"/>
<path d="M198.77 203.06L203.45 202.02" stroke="white" stroke-width="1.04" stroke-miterlimit="10"/>
<path d="M127.17 223.97L126.81 211.18L120.59 212.6L120.02 210L130.2 207.75L130.59 223.23L127.17 223.97Z" stroke="white" stroke-width="1.04" stroke-miterlimit="10"/>
<path d="M105.25 238.88L109.43 236.11" stroke="white" stroke-width="1.04" stroke-miterlimit="10"/>
<path d="M99.79 237.06L104.5 235.13" stroke="white" stroke-width="1.04" stroke-miterlimit="10"/>
<path d="M96.1199 233.47L100.63 233.04" stroke="white" stroke-width="1.04" stroke-miterlimit="10"/>
<path d="M94.1899 227.77L98.3299 229.29" stroke="white" stroke-width="1.04" stroke-miterlimit="10"/>
<path d="M96.99 218.73L98.43 222.21" stroke="white" stroke-width="1.04" stroke-miterlimit="10"/>
<path d="M94.28 223.2L97.79 225.65" stroke="white" stroke-width="1.04" stroke-miterlimit="10"/>
<path d="M101.32 214L100.76 218.91" stroke="white" stroke-width="1.04" stroke-miterlimit="10"/>
<path d="M106.46 212.46L104.81 216.65" stroke="white" stroke-width="1.04" stroke-miterlimit="10"/>
<path d="M112.01 211.23L109.04 215.71" stroke="white" stroke-width="1.04" stroke-miterlimit="10"/>
<path d="M115.85 210.56L113.73 214.29" stroke="white" stroke-width="1.04" stroke-miterlimit="10"/>
<path d="M220.55 174.86C232.71 172.92 231.36 157.65 220.99 158.74C216.25 159.33 201.6 166.33 194.52 168.99C187.43 171.65 182.34 173.14 181.27 173.52C177.91 174.99 179.33 180.07 183.14 179.05C186.13 178.45 191.71 176.69 199.81 174.49C207.91 172.29 214.17 176.49 220.54 174.85H220.56L220.55 174.86Z" stroke="white" stroke-width="1.04" stroke-miterlimit="10"/>
<path d="M201.95 286.88C194.59 288.52 189.96 296.01 191.66 303.61C193.36 311.21 200.69 316.05 208.05 314.43L262.48 304.31C268.34 302.96 266.62 296.71 261.23 297.76C256.89 297.91 255.83 291.65 264.21 291.01C267.15 290.43 271.91 287.25 269.99 281.41C268.07 275.57 263.17 275.39 258.86 276.35L202.2 286.87" stroke="#9CA2A2" stroke-width="1.56" stroke-miterlimit="10"/>
<path d="M258.24 276.28C258.24 276.28 259.85 276.7 260.05 276.55C260.25 276.4 260.09 276.04 260.38 275.99C260.67 275.94 260.96 276.88 261.5 276.62C262.04 276.36 261.8 275.96 262.17 276.09C262.54 276.22 263.13 277.36 263.52 277.28C263.91 277.2 264.41 276.26 264.59 276.32C264.77 276.38 265.18 277.57 265.52 277.55C265.86 277.53 266.21 276.62 266.49 276.92C266.77 277.22 266.83 278.18 267.18 278.37C267.53 278.56 268.57 278.64 268.66 279.1C268.75 279.56 268.46 279.94 268.51 280.16C268.56 280.38 269.96 280.98 269.93 281.49C269.9 282 269.35 282.37 269.44 282.69C269.53 283.01 270.37 283.68 270.29 284.08C270.21 284.48 269.49 285.09 269.47 285.54C269.45 285.99 270.33 286.61 269.95 286.92C269.57 287.23 268.85 287.71 268.68 287.97C268.51 288.23 269.29 289.26 268.89 289.51C268.49 289.76 267.67 289.14 267.34 289.23C267.01 289.32 267.05 290.99 266.69 291.05C266.33 291.11 265.58 290.69 265.26 290.67C264.94 290.65 264.54 291.75 264.1 291.77C263.66 291.79 263.35 291.33 263.08 291.32C262.81 291.31 262.07 291.8 261.77 291.76C261.47 291.72 261.37 291.26 261.1 291.18C260.83 291.1 260.3 291.62 260 291.55C259.7 291.48 259.31 290.73 259.05 290.74C258.79 290.75 258.38 291.16 258.08 290.95C257.78 290.74 257.9 289.93 257.65 289.79C257.4 289.65 256.68 289.88 256.28 289.47C255.88 289.06 256.37 288.26 256.23 288.08C256.09 287.9 255.47 287.91 255.25 287.57C255.03 287.23 255.2 286.63 255.23 286.36C255.26 286.09 254.62 286.39 254.55 285.93C254.48 285.47 254.68 284.8 254.81 284.4C254.94 284 254.02 283.95 254.22 283.44C254.42 282.93 254.59 282.59 254.71 282.1C254.83 281.61 254.23 281.42 254.4 280.73C254.57 280.04 255.61 280.1 256.03 279.87C256.45 279.64 255.87 278.55 256.3 278.25C256.73 277.95 257.55 278.17 257.89 277.91C258.23 277.65 257.63 276.64 258.25 276.24L258.21 276.3L258.24 276.28Z" fill="#C16EAC"/>
<path d="M259.48 278.11C259.48 278.11 260.67 278.41 260.81 278.3C260.95 278.19 260.84 277.94 261.04 277.89C261.24 277.84 261.46 278.54 261.85 278.34C262.24 278.14 262.07 277.85 262.33 277.95C262.59 278.05 263.02 278.86 263.31 278.81C263.6 278.76 263.97 278.09 264.09 278.12C264.21 278.15 264.51 279.02 264.76 279.01C265.01 279 265.25 278.35 265.46 278.56C265.67 278.77 265.71 279.47 265.96 279.6C266.21 279.73 266.95 279.79 267.03 280.13C267.11 280.47 266.9 280.73 266.93 280.9C266.96 281.07 267.99 281.5 267.96 281.87C267.93 282.24 267.54 282.52 267.59 282.74C267.64 282.96 268.27 283.45 268.21 283.74C268.15 284.03 267.61 284.45 267.61 284.8C267.61 285.15 268.23 285.59 267.97 285.81C267.71 286.03 267.19 286.39 267.06 286.57C266.93 286.75 267.47 287.5 267.2 287.69C266.93 287.88 266.31 287.41 266.08 287.48C265.85 287.55 265.88 288.74 265.61 288.8C265.34 288.86 264.8 288.55 264.57 288.53C264.34 288.51 264.05 289.31 263.74 289.33C263.43 289.35 263.2 289.01 263.01 289.01C262.82 289.01 262.26 289.36 262.05 289.34C261.84 289.32 261.76 288.98 261.56 288.93C261.36 288.88 260.96 289.25 260.76 289.2C260.56 289.15 260.26 288.6 260.07 288.61C259.88 288.62 259.58 288.92 259.36 288.76C259.14 288.6 259.2 288.01 259.03 287.92C258.86 287.83 258.34 288 258.05 287.69C257.76 287.38 258.12 286.82 258.01 286.68C257.9 286.54 257.46 286.54 257.3 286.3C257.14 286.06 257.28 285.6 257.28 285.43C257.28 285.26 256.83 285.47 256.78 285.13C256.73 284.79 256.87 284.29 256.97 284.01C257.07 283.73 256.41 283.68 256.54 283.33C256.67 282.98 256.79 282.73 256.89 282.36C256.99 281.99 256.56 281.85 256.68 281.36C256.8 280.87 257.55 280.9 257.86 280.75C258.17 280.6 257.76 279.8 258.06 279.58C258.36 279.36 258.96 279.52 259.21 279.32C259.46 279.12 259.02 278.39 259.47 278.1H259.5L259.48 278.11Z" fill="#9B568E"/>
<path d="M260.73 281.42C260.73 281.42 261.41 281.59 261.48 281.53C261.55 281.47 261.5 281.32 261.62 281.3C261.74 281.28 261.85 281.67 262.08 281.56C262.31 281.45 262.21 281.29 262.36 281.34C262.51 281.39 262.74 281.86 262.91 281.83C263.08 281.8 263.28 281.4 263.36 281.44C263.44 281.48 263.6 281.96 263.74 281.96C263.88 281.96 264.01 281.57 264.14 281.7C264.27 281.83 264.29 282.22 264.43 282.3C264.57 282.38 264.99 282.42 265.04 282.6C265.09 282.78 264.97 282.93 264.99 283.03C265.01 283.13 265.57 283.37 265.57 283.59C265.57 283.81 265.33 283.94 265.37 284.08C265.41 284.22 265.75 284.49 265.73 284.65C265.71 284.81 265.39 285.05 265.39 285.25C265.39 285.45 265.74 285.68 265.59 285.81C265.44 285.94 265.12 286.15 265.06 286.25C265 286.35 265.32 286.77 265.16 286.88C265 286.99 264.66 286.73 264.53 286.77C264.4 286.81 264.4 287.47 264.26 287.51C264.12 287.55 263.8 287.36 263.67 287.36C263.54 287.36 263.37 287.81 263.2 287.82C263.03 287.83 262.89 287.66 262.79 287.64C262.69 287.62 262.37 287.83 262.24 287.82C262.11 287.81 262.07 287.62 261.96 287.59C261.85 287.56 261.62 287.78 261.51 287.75C261.4 287.72 261.24 287.41 261.12 287.41C261 287.41 260.83 287.6 260.71 287.49C260.59 287.38 260.62 287.07 260.53 287.01C260.44 286.95 260.13 287.04 259.96 286.87C259.79 286.7 260 286.37 259.94 286.3C259.88 286.23 259.63 286.21 259.54 286.08C259.45 285.95 259.54 285.7 259.54 285.59C259.54 285.48 259.28 285.59 259.25 285.41C259.22 285.23 259.3 284.95 259.36 284.78C259.42 284.61 259.03 284.59 259.12 284.38C259.21 284.17 259.27 284.02 259.33 283.82C259.39 283.62 259.14 283.53 259.21 283.26C259.28 282.99 259.71 282.99 259.87 282.91C260.03 282.83 259.8 282.36 259.97 282.25C260.14 282.14 260.49 282.22 260.63 282.11C260.77 282 260.53 281.58 260.78 281.42H260.75H260.73Z" fill="#C16EAC"/>
<path d="M198.22 287.1C198.22 287.1 201.09 287.85 201.41 287.57C201.73 287.29 201.49 286.66 201.97 286.59C202.45 286.52 202.96 288.17 203.92 287.7C204.88 287.23 204.48 286.52 205.1 286.76C205.72 287 206.75 288.98 207.45 288.85C208.15 288.72 209.04 287.05 209.35 287.16C209.66 287.27 210.39 289.38 210.98 289.33C211.57 289.28 212.19 287.7 212.68 288.23C213.17 288.76 213.28 290.43 213.89 290.77C214.5 291.11 216.31 291.22 216.5 292.05C216.69 292.88 216.18 293.54 216.26 293.91C216.34 294.28 218.8 295.32 218.76 296.24C218.72 297.16 217.75 297.8 217.89 298.36C218.03 298.92 219.52 300.1 219.39 300.8C219.26 301.5 217.96 302.56 217.95 303.38C217.94 304.2 219.46 305.27 218.82 305.82C218.18 306.37 216.89 307.22 216.59 307.67C216.29 308.12 217.64 309.95 216.96 310.4C216.28 310.85 214.82 309.75 214.24 309.91C213.66 310.07 213.72 312.99 213.09 313.11C212.46 313.23 211.11 312.48 210.58 312.44C210.05 312.4 209.31 314.34 208.56 314.38C207.81 314.42 207.24 313.61 206.77 313.6C206.3 313.59 204.99 314.43 204.44 314.38C203.89 314.33 203.72 313.51 203.25 313.38C202.78 313.25 201.82 314.19 201.32 314.04C200.82 313.89 200.12 312.57 199.65 312.61C199.18 312.65 198.48 313.39 197.94 312.99C197.4 312.59 197.59 311.17 197.17 310.94C196.75 310.71 195.48 311.11 194.78 310.38C194.08 309.65 194.95 308.25 194.7 307.92C194.45 307.59 193.34 307.61 192.98 307.02C192.62 306.43 192.92 305.36 192.95 304.9C192.98 304.44 191.87 304.95 191.74 304.15C191.61 303.35 191.94 302.15 192.18 301.45C192.42 300.75 190.78 300.68 191.14 299.78C191.5 298.88 191.79 298.29 192 297.42C192.21 296.55 191.17 296.19 191.47 295C191.77 293.81 193.59 293.91 194.33 293.51C195.07 293.11 194.04 291.19 194.8 290.65C195.56 290.11 197 290.49 197.61 290.02C198.22 289.55 197.14 287.78 198.24 287.08L198.21 287.12L198.22 287.1ZM202.6 298.66C203.05 297.73 202.09 295.96 200.39 293.2C198.69 290.44 196.42 292.58 195.11 295C193.64 297.72 198.48 298.52 198.66 298.56C198.84 298.6 202.17 299.57 202.62 298.66H202.6ZM206.1 303.45C205.22 303.96 205.04 305.99 204.91 309.21C204.78 312.44 207.86 311.94 210.29 310.66C213.05 309.2 209.46 305.85 209.34 305.71C209.22 305.57 207 302.92 206.12 303.43V303.45H206.1ZM205.41 298.61C206.43 298.74 207.78 297.23 209.83 294.73C211.88 292.23 209.12 290.78 206.41 290.34C203.35 289.83 204.18 294.68 204.21 294.86C204.24 295.04 204.41 298.51 205.43 298.62H205.41V298.61ZM207.35 301.05C207.7 302.01 209.66 302.57 212.81 303.27C215.96 303.97 216.02 300.88 215.21 298.24C214.29 295.27 210.34 298.16 210.19 298.28C210.04 298.4 207.01 300.09 207.36 301.05H207.35ZM203.27 302.51C202.57 301.75 200.58 302 197.37 302.56C194.17 303.13 195.31 306.01 197.09 308.12C199.08 310.5 201.61 306.29 201.71 306.13C201.81 305.97 203.92 303.23 203.24 302.48H203.26L203.27 302.51Z" fill="#C16EAC" stroke="white" stroke-width="0.92" stroke-miterlimit="10"/>
<path d="M113.08 320.82C116.18 318.94 120.87 316.1 122.54 310.22C123.7 306.13 128.95 259.09 128.95 259.09C129 258.61 128.77 258.42 128.38 258.38L123.42 257.93C122.85 257.95 122.58 258.14 122.58 258.45C122.58 258.45 120.45 300.09 119.21 307.63C119.01 308.89 118.26 311.22 118.1 311.59C117.56 312.78 116.16 315.88 112.25 319.42C111.8 319.11 111.23 318.95 110.65 319.05C109.49 319.24 108.69 320.35 108.87 321.51C109.05 322.67 110.17 323.47 111.33 323.29C112.49 323.11 113.3 322.01 113.11 320.83V320.81L113.08 320.82Z" stroke="white" stroke-width="1.04" stroke-miterlimit="10"/>
<path d="M262.615 285.643C263.362 285.523 263.87 284.82 263.75 284.073C263.63 283.326 262.927 282.818 262.18 282.938C261.433 283.058 260.924 283.761 261.045 284.508C261.165 285.255 261.868 285.763 262.615 285.643Z" fill="#9CA2A2"/>
<path d="M93.06 212.34C94.27 210.85 94.54 211.87 94.86 213.1C95.5 214.87 96.37 216.8 99.22 216.81C97.04 218.4 95.66 220.27 95.24 222.46C94.57 219.73 93.58 217.94 91.55 217.39" stroke="white" stroke-width="1.04" stroke-linejoin="round"/>
<path d="M92.1699 212.59C92.9599 211.85 93.6199 212.11 93.4799 213.2C93.3399 214.29 93.2799 214.7 92.8399 216.74C92.3799 217.48 90.2599 217.93 90.1099 218.49C89.6199 220.32 91.2499 223.81 91.3099 226.16C91.3699 228.51 89.5199 231.07 89.5199 231.07C88.9799 231.84 87.8999 231.26 88.2099 230.46C88.2099 230.46 89.7799 227.82 89.6999 225.45C89.6199 223.08 87.7499 219.44 88.2499 217.61C88.7499 215.78 92.1699 212.56 92.1699 212.56V212.58V212.59Z" stroke="white" stroke-width="1.04" stroke-miterlimit="10"/>
<path d="M261.294 297.831C262.777 297.592 263.786 296.197 263.547 294.714C263.308 293.23 261.913 292.222 260.43 292.46C258.946 292.699 257.938 294.095 258.176 295.578C258.415 297.061 259.811 298.07 261.294 297.831Z" fill="#9B568E"/>
<path d="M263.759 303.416C265.193 303.186 266.168 301.836 265.937 300.402C265.707 298.968 264.357 297.992 262.923 298.223C261.489 298.454 260.513 299.803 260.744 301.237C260.975 302.672 262.325 303.647 263.759 303.416Z" fill="#9B568E"/>
<path d="M268.81 292.21C269.91 291.18 268.39 288.51 266.81 289.45L259.71 293.76C258.04 295.01 259.7 297.92 261.54 296.88L268.82 292.22V292.2L268.81 292.21Z" fill="#DDDDDD"/>
<path d="M262.08 302.23C263.21 303.92 265.87 302.06 264.82 300.53L262.44 295.01C261.06 293.39 258.76 295.13 259.94 296.92L262.06 302.24H262.08V302.23Z" fill="#DDDDDD"/>
<path d="M202.31 298.91L195.82 294.89" stroke="white" stroke-width="1.04" stroke-miterlimit="10"/>
<path d="M206.66 290.22L206.94 298.06" stroke="white" stroke-width="1.04" stroke-miterlimit="10"/>
<path d="M255.07 270.82L253.33 273.5L261 283.51L250.97 286.83L251.45 289.31L262.98 285.67L264.5 284.39L264.59 282.32L255.07 270.82Z" fill="#C16EAC"/>
<path d="M218.44 299.66L262.72 285.63C263.93 285.17 265.42 283.78 264.32 281.66L203.67 208.55L203.52 204.12L203.44 202.01L202.34 202.26L201.68 174.21" stroke="white" stroke-width="1.04" stroke-miterlimit="10"/>
<path d="M222.69 295.16L260.44 284.2C261.27 283.89 261.07 283.42 260.78 283.08L204.57 214.68L206.67 284.94" stroke="white" stroke-width="1.04" stroke-miterlimit="10"/>
<path d="M266.52 291.82C267.75 293.45 270.31 291.44 269.16 289.96L263.83 282.63C262.36 281.1 260.17 282.96 261.44 284.68L266.51 291.82H266.52Z" fill="#DDDDDD"/>
<path d="M262.931 284.835C263.526 284.739 263.93 284.18 263.834 283.585C263.739 282.991 263.18 282.587 262.585 282.682C261.991 282.778 261.587 283.337 261.682 283.932C261.778 284.526 262.337 284.93 262.931 284.835Z" fill="#9CA2A2"/>
<path d="M203.57 299.9C204.34 299.13 205.57 299.14 206.34 299.9C213.21 308.08 220.14 315.22 227.18 320.55L224.44 323.32C219.02 317.08 211.7 310.04 203.6 302.67C202.83 301.9 202.81 300.68 203.58 299.91L203.57 299.9Z" fill="#9CA2A2"/>
<path d="M240.003 319.875L217.818 327.805L219.309 331.977L241.494 324.046L240.003 319.875Z" fill="#9CA2A2"/>
<path d="M111.09 322.18C111.653 322.18 112.11 321.723 112.11 321.16C112.11 320.597 111.653 320.14 111.09 320.14C110.527 320.14 110.07 320.597 110.07 321.16C110.07 321.723 110.527 322.18 111.09 322.18Z" fill="#9CA2A2"/>
<path d="M203.34 203.37C205.36 203.97 209.49 206.18 210.81 211.77C212.14 217.76 208.28 220.9 209.96 225.22C211.65 229.54 214.86 227.15 214.86 227.15" stroke="#1B938C" stroke-width="2.08" stroke-miterlimit="10"/>
<path d="M227.63 243.04C227.63 243.04 224.09 244.59 222.35 242C220.6 239.41 225.17 230.47 222.72 227.01C220.27 223.55 217.36 225.72 217.36 225.72" stroke="#1B938C" stroke-width="2.08" stroke-miterlimit="10"/>
<path d="M241.78 260.25C241.78 260.25 239.36 262.18 237.39 259.08C235.42 255.98 239.54 248.34 237.62 245.24C235.7 242.14 231.73 242.86 231.73 242.86" stroke="#1B938C" stroke-width="2.08" stroke-miterlimit="10"/>
<path d="M254.66 275.77C254.66 275.77 252.58 278.3 249.67 274.59C246.76 270.89 252.16 264.13 250.13 260.45C248.1 256.77 245.24 258.45 245.24 258.45" stroke="#1B938C" stroke-width="2.08" stroke-miterlimit="10"/>
<path d="M203.85 184.46L198.48 191.14C198.48 191.14 196.05 193.7 196.76 196.87C197.13 198.53 197.28 199.9 200.25 201.06" stroke="#1B938C" stroke-width="2.08" stroke-miterlimit="10"/>
<path d="M285.61 255.88C285.61 255.88 286.16 259.86 284.38 261.18C282.6 262.5 278.23 259.79 275.86 261.5C273.49 263.21 275.36 272.67 271.44 272.37C267.52 272.07 262.66 264.41 258.61 274.21" stroke="#1B938C" stroke-width="2.08" stroke-miterlimit="10"/>
<path d="M125.67 211.4C125.67 211.4 126.02 213.6 123.76 213.7C121.5 213.8 117.57 210 117.57 210L109.92 198.49" stroke="#1B938C" stroke-width="2.08" stroke-miterlimit="10"/>
<path d="M130.41 209.03C131.96 208.99 133.13 210.38 132.14 212.4C131.15 214.42 125.28 214.29 125.15 217.1C125.02 219.91 126.88 220.55 126.88 220.55" stroke="#1B938C" stroke-width="2.08" stroke-miterlimit="10"/>
<path d="M125.6 235.14C125.6 235.14 121.9 232.97 122.81 229.81C123.72 226.65 133.14 224.5 133.48 222.4C133.71 219.93 130.49 219.6 130.49 219.6" stroke="#1B938C" stroke-width="2.08" stroke-miterlimit="10"/>
<path d="M203.69 208.54L208.67 214.54" stroke="white" stroke-width="1.04" stroke-miterlimit="10"/>
<path d="M212.67 219.34L221.08 229.45" stroke="white" stroke-width="1.04" stroke-miterlimit="10"/>
<path d="M225.31 234.53L248.58 262.49" stroke="white" stroke-width="1.04" stroke-miterlimit="10"/>
<path d="M246.67 265.88L224.36 238.72" stroke="white" stroke-width="1.04" stroke-miterlimit="10"/>
<path d="M220.41 233.94L211.59 223.2" stroke="white" stroke-width="1.04" stroke-miterlimit="10"/>
<path d="M207.95 218.75L204.58 214.67" stroke="white" stroke-width="1.04" stroke-miterlimit="10"/>
<path d="M203.45 202.02L203.53 204.13L203.69 208.54" stroke="white" stroke-width="1.04" stroke-miterlimit="10"/>
<path d="M200.34 202.7L200.01 195.36" stroke="white" stroke-width="1.04" stroke-miterlimit="10"/>
<path d="M123.97 257.97C124.78 247.29 125.48 237.38 125.93 231.02" stroke="white" stroke-width="1.04" stroke-miterlimit="10"/>
<path d="M130.41 216.11L130.55 221.69" stroke="white" stroke-width="1.04" stroke-miterlimit="10"/>
<path d="M127.12 222.24L126.99 217.2" stroke="white" stroke-width="1.04" stroke-miterlimit="10"/>
<path d="M126.88 213.59L126.81 211.18L123.67 211.9" stroke="white" stroke-width="1.04" stroke-miterlimit="10"/>
<path d="M130.2 207.75L130.3 211.41" stroke="white" stroke-width="1.04" stroke-miterlimit="10"/>
<path d="M145.78 257.67C145.78 257.67 145.78 253.48 142.14 253.37C138.5 253.26 136.5 258.4 133.99 257.96C131.48 257.52 131.66 255.81 128.76 255.16" stroke="#1B938C" stroke-width="2.08" stroke-miterlimit="10"/>
<path d="M124.4 251.73C124.4 251.73 121.42 251.6 121.94 248.29C122.46 244.98 132.43 244.55 132.73 241.3C133.03 238.05 130.72 237.28 130.72 237.28" stroke="#1B938C" stroke-width="2.08" stroke-miterlimit="10"/>
<path d="M177.63 258.94C177.63 258.94 177.03 263.08 173.28 263.69C169.53 264.3 169.84 259.2 166.8 259.23C163.76 259.26 164.61 263.24 161.61 263.59C158.61 263.94 156.74 261.76 155.06 262.28C153.38 262.8 151.33 264.26 151.33 264.26C151.33 264.26 148.23 267.75 146.08 266.72C143.93 265.69 145.47 262.91 145.47 262.91" stroke="#1B938C" stroke-width="2.08" stroke-miterlimit="10"/>
<path d="M131.56 230.25L130.24 241.08" stroke="white" stroke-width="1.04" stroke-miterlimit="10"/>
<path d="M143.92 256.51L150.65 260.81" stroke="white" stroke-width="1.04" stroke-miterlimit="10"/>
<path d="M148.13 264.63L139.53 259.16" stroke="white" stroke-width="1.04" stroke-miterlimit="10"/>
<path d="M134.32 255.87L129.09 252.54L128.43 258.48" stroke="white" stroke-width="1.04" stroke-miterlimit="10"/>
<path d="M123.97 257.99C124.2 254.76 124.45 251.6 124.67 248.61" stroke="white" stroke-width="1.04" stroke-miterlimit="10"/>
<path d="M120.35 258.45C119.96 255.71 122.16 255.88 121.16 253.89C120.16 251.9 118.48 252.34 118.57 249.77C118.66 247.2 124.88 245.22 124.88 245.22" stroke="#1B938C" stroke-width="1.04" stroke-miterlimit="10"/>
<path d="M218 224.81C218 224.81 222.42 221.59 225.41 223.79C228.39 225.99 226.23 228.13 228.5 231.91" stroke="#1B938C" stroke-width="1.04" stroke-miterlimit="10"/>
<path d="M201.7 174.22L202.35 202.27L203.45 202.02L203.53 204.13L203.69 208.54" stroke="white" stroke-width="1.04" stroke-miterlimit="10"/>
<path d="M254.8 270.14L261.74 278.51" stroke="white" stroke-width="1.04" stroke-miterlimit="10"/>
<path d="M258.48 280.24L252.35 272.8" stroke="white" stroke-width="1.04" stroke-miterlimit="10"/>
<path d="M14.1698 126.06C14.1698 126.06 28.2498 95.39 28.2498 95.06C28.2498 94.73 37.3898 72.04 37.3898 72.04C37.3898 72.04 42.2598 61.55 34.5698 56.81C26.8898 52.07 20.9598 57.07 19.3198 58.83C17.6798 60.59 16.1898 66.62 16.4698 67.03C16.7498 67.44 9.32983 110.53 9.32983 110.53C9.32983 110.53 14.4898 126.35 14.1598 126.08V126.06H14.1698Z" fill="#6B5CA8"/>
<path d="M13.1599 129.94L30.4999 117.37L59.9499 91.01C59.9499 91.01 66.9299 82.98 66.8699 79.87C67.4599 70.26 61.9999 66.78 57.2099 67.83C52.4199 68.88 49.5199 74.13 49.5199 74.13L36.2199 89.39L22.4199 105.45L13.1599 129.91V129.93V129.94Z" fill="#6B5CA8"/>
<path d="M20.0799 129.35L18.3799 134L27.2899 129.92C27.2899 129.92 55.6499 122.36 56.0699 122.47C56.4899 122.58 80.9699 114.98 80.9699 114.98C80.9699 114.98 87.6099 111.28 87.9499 107.29C88.2899 103.3 87.4799 98.69 83.4899 96.76C79.4999 94.83 66.9799 98.79 66.9799 98.79L42.4999 109.21L20.0899 129.34V129.36L20.0799 129.35Z" fill="#6B5CA8"/>
<path d="M29.5398 155.9L40.8198 159.57C40.8198 159.57 69.3398 172.08 70.1898 172.63C71.0398 173.18 87.6698 180.31 91.0898 179.76C94.5098 179.21 100.81 176.9 100.93 170.64C101.05 164.38 93.7998 162.34 93.7998 162.34L77.0198 158.92L57.0198 146.58L29.5498 155.89L29.5398 155.9Z" fill="#6B5CA8"/>
<path d="M24.0997 136.84L21.4697 135.53L26.4997 129.01C26.4997 129.01 66.7397 120.98 66.9197 121.16C67.0997 121.34 90.3697 117.3 90.3697 117.3C90.3697 117.3 95.4697 114.94 99.9797 117.68C104.49 120.42 105.1 127.05 103.23 131.54C101.36 136.03 94.9497 136.15 94.9497 136.15L74.6897 133.29L40.3697 135.62L24.1097 136.82V136.84H24.0997Z" fill="#6B5CA8"/>
<path d="M86.0298 137.81L24.9398 138.09L22.3098 143L62.6598 145.5L92.8798 162.24C92.8798 162.24 99.5598 161.18 100.86 151.18C102.16 141.18 92.2998 136.77 92.2998 136.77L85.9998 137.82H86.0198L86.0298 137.81Z" fill="#6B5CA8"/>
<path d="M233.64 317.68L235.26 323.2C232.62 323.78 210.65 330.56 206.9 316.07C205.26 309.24 205.28 304.15 214.09 297.06C230.78 282.98 240.02 270.11 232.86 255.6C227.12 243.96 216.5 242.57 196.14 246.58C187.56 248.28 179.86 251.88 172.49 250.98C162.66 249.78 155.93 244.09 153.02 234.52C149.07 221.54 159.59 211.4 162.73 207.97C169.1 201.04 176.26 196.87 184.87 190.5C188.96 187.48 196.09 181.62 199.83 178.6C210.1 170.31 214.51 159.85 213.93 152.62C213.82 151.15 213.07 144.87 205.64 140.62C195.45 134.79 176.72 144.29 159.86 151.12C146.53 156.51 133.42 159.19 122.53 159.46C110 159.78 99.2201 155.48 91.1901 150.71C89.3501 149.62 74.5301 138.99 55.8501 138.42C37.1701 137.85 19.1301 152.93 18.9801 152.78L16.5601 149.51C16.5601 149.51 30.6801 135.25 51.2901 133.74C71.9001 132.23 82.2001 139.65 91.2301 145.24C100.26 150.83 111.65 155.52 125.21 155.19C149.33 154.6 187.89 121.42 209.92 134.03C231.94 146.64 219.19 172.84 202.78 186.12C183.52 201.68 155.06 215.68 160.15 232.4C169.57 263.39 222.37 217.57 239.55 252.36C256.73 287.15 205.85 296.03 211.12 313.71C215.69 327.4 233.62 317.75 233.62 317.75V317.7L233.64 317.68Z" fill="#61C6C3"/>
<path d="M99.6701 221.12C98.6401 222.02 98.2201 223.3 98.3701 224.9C98.3701 224.9 115.8 234.47 120.69 221.1C125.58 207.73 97.4501 192.62 108.15 175.93C118.54 158.86 153.67 183.01 159.2 166.93C161.78 154.07 149.37 152.9 147.96 151.99L142.22 154.74C146.7 154.81 156.23 157.22 155.74 163.81C154.94 172.32 143.45 169.84 132.41 167.34C122.7 165.14 110.64 162.38 103.96 173.28C96.5101 184.92 104.72 194.69 110.84 203.43C114.91 209.22 121.43 215.43 116.52 222.21C111.62 228.99 101.52 222.08 99.6601 221.1V221.12H99.6701Z" fill="#61C6C3"/>
<path d="M87.9501 218.91C86.7201 219.3 84.9501 220.71 85.1501 222.64C85.4101 225.03 86.8601 226.96 88.9001 228.43C90.9401 229.9 95.4701 229.41 97.3301 229.63C99.1901 229.85 100.59 230.81 100.82 231.82C101.05 232.83 100.72 232.62 100.72 232.62L102.6 233.96C102.6 233.96 104.65 232.19 103.44 230.04C102.81 229.09 101.04 227.78 99.0401 227.33C97.0401 226.88 93.6401 227.33 91.3601 226.52C88.2001 225.42 87.3901 222.78 88.6301 221.63" fill="#61C6C3"/>
<path d="M273.77 122.39C273.77 122.39 239.8 93.79 210.87 101.81C181.93 109.83 178.8 142.43 184.64 134.91C190.47 127.38 212.68 124.6 226.18 124.65C239.68 124.7 257.05 129.41 273.79 122.37V122.39H273.77Z" fill="#61C6C3"/>
<path d="M42.45 168.02L8.25 126.98C8.25 126.98 15.48 124.55 21.54 126.17C27.6 127.79 42.41 144.12 44.42 151.38C46.43 158.64 42.43 168 42.43 168H42.45V168.02Z" fill="#1B938C"/>
<path d="M98.8101 237.57L96.8801 235.81C96.3401 237.91 95.7301 241.43 99.6901 242.09C103.65 242.75 106.7 237.65 106.99 236.8L105.11 235.89C105.11 235.89 102.46 240.56 99.9801 239.73C98.8501 239.35 98.8001 238.4 98.8101 237.59V237.57Z" fill="#61C6C3"/>
<path d="M99.22 210.15C101.31 207.43 100.79 204.1 103.03 201.41C105.28 198.72 110.36 198.43 110.35 204.54L107.63 203.87C107.63 203.87 107.12 201.99 106.08 202.31C105.04 202.63 102.93 210.16 102.93 210.16C102.79 210.5 102.63 210.8 102.45 211.1" fill="#1B938C"/>
<path d="M136.05 254.79C136.956 254.79 137.69 254.056 137.69 253.15C137.69 252.244 136.956 251.51 136.05 251.51C135.144 251.51 134.41 252.244 134.41 253.15C134.41 254.056 135.144 254.79 136.05 254.79Z" fill="#DDDDDD"/>
<path d="M135.64 250.73L137.55 252.46C138.98 250.14 140.87 248.16 143.05 246.13C143.68 245.17 142.93 244.41 141.79 245.82C140.03 248.4 138.35 249.81 135.66 250.73H135.64Z" fill="#DDDDDD"/>
<path d="M113.68 271.92C113.11 271.87 112.92 271.55 113.05 271.02L113.14 270.08C113.16 269.57 113.43 269.4 113.78 269.4L120.99 270.13C121.26 270.19 121.4 270.36 121.34 270.67L121.19 272.13C121.19 272.41 121.11 272.63 120.73 272.63L113.68 271.92Z" fill="#9CA2A2"/>
<path d="M116.8 260.7C116.93 258.58 118.98 258.58 118.92 260.81L118.32 271.45L116.2 271.34L116.8 260.7Z" fill="#DDDDDD"/>
<path d="M120.86 264.79C120.77 265.96 118.72 265.89 118.75 264.64L119.19 258.75C119.21 257.56 121.32 257.48 121.3 258.9L120.86 264.79Z" fill="#DDDDDD"/>
<path d="M232.8 236.75C233.47 237.73 231.82 238.96 231.07 237.97L227.66 233.14C226.91 232.19 228.49 230.8 229.39 231.92L232.8 236.75Z" fill="#DDDDDD"/>
<path d="M114.71 270.02L120.07 270.58C120.79 270.68 120.61 272.09 119.92 272.02L114.56 271.46C113.76 271.31 114.03 270 114.71 270.02Z" fill="#DDDDDD"/>
<path d="M234.34 243.61C233.84 243.9 233.51 243.76 233.3 243.25L232.84 242.43C232.58 241.98 232.7 241.7 232.99 241.5L239.35 237.99C239.59 237.86 239.8 237.94 239.93 238.23L240.65 239.52C240.81 239.76 240.86 239.98 240.55 240.18L234.34 243.61Z" fill="#9CA2A2"/>
<path d="M230.16 232.67C228.95 230.92 230.55 229.65 231.89 231.45L238.02 240.15L236.29 241.37L230.16 232.67Z" fill="#DDDDDD"/>
<path d="M234.03 241.1L238.76 238.5C239.39 238.17 240.07 239.45 239.46 239.77L234.73 242.37C233.99 242.7 233.47 241.49 234.03 241.1Z" fill="#DDDDDD"/>
<path d="M233.13 255.58C232.5 254.38 224.39 244.91 219.03 245.16C213.9 244.74 199.45 245.54 199.45 245.54L180.85 250.51C180.49 251.55 167.27 251.38 166.18 249.84C164.06 249.73 155.02 240.79 155.79 240.38C155.79 240.38 160.82 246.35 170.01 248.29C174.58 249.04 176.99 249.44 196.82 244.29C202.5 243.32 215.67 240.24 223.12 243.28C230.57 246.32 233.12 255.58 233.12 255.58V255.56L233.13 255.58Z" fill="#1B938C"/>
<path d="M221.11 151.12L222.33 153.69C222.33 153.69 219.41 164.76 219.44 166.44C219.47 168.47 206.64 185.2 201.41 188C196.28 190.75 177.17 205.72 177.17 205.72C177.17 205.72 166.04 214.62 164.27 217.68C162.5 220.73 160.66 220.92 159.79 226.88C158.92 232.84 159.97 232.35 162.26 238.64C161.16 237.47 157.89 235.54 158.29 224.61C158.69 213.68 188.91 194.05 201.77 184.16C214.64 174.28 220.12 161 221.12 151.1H221.1L221.11 151.12Z" fill="#1B938C"/>
<path d="M144.49 155.72C129.2 160.56 113.98 161.05 101.87 155.92L88.94 149.29L75.35 142.68C75.35 142.68 72.19 140.12 58.78 138.6C45.36 137.1 31.12 145.07 31.12 145.07C31.12 145.07 25.72 141.68 27.21 141.44C28.56 141.22 38.17 134.51 51.29 133.75C64.41 132.99 74.45 136.37 75.67 136.71C78.89 137.66 89.95 144.45 89.95 144.45L106.04 152.08C104.04 159.71 134.78 158.44 144.48 155.74V155.72H144.49Z" fill="#1B938C"/>
<path d="M152.56 153.63C152.56 153.63 148.49 151.94 148.02 151.47C154.43 153.21 176.48 140.51 185.54 137.9C194.6 135.3 200.16 134.76 205.29 137.16C210.35 139.5 213.82 145.44 214.42 152.41C213.1 148.26 211.67 145.63 210.16 143.7C208.64 141.77 203.5 139.74 200.3 138.96C197.09 138.18 190.29 139.27 180.52 142.88C172.37 145.89 159.8 150.98 152.53 153.62H152.55L152.56 153.63Z" fill="#1B938C"/>
<path d="M240.77 256.44C240.36 254.09 241.59 257.41 242.66 264.28C243.73 271.15 238.17 280.25 233.91 285.03C229.35 290.02 215.88 301.48 213.68 304.55C210.82 307.46 210.78 314.08 212.18 317.14C212.18 317.14 207.43 311.37 210.21 306C212.18 302.67 221.37 294.22 223.32 292.5C225.27 290.78 236.09 279.95 238.58 273.89C241.07 267.83 241.13 258.83 240.73 256.46L240.76 256.44H240.77Z" fill="#1B938C"/>
<path d="M213.49 114.74C184.55 122.76 178.8 142.43 184.63 134.91C190.46 127.38 212.67 124.6 226.17 124.65C239.67 124.7 257.04 129.41 273.78 122.37C273.78 122.37 242.42 106.72 213.49 114.74Z" fill="#1B938C"/>
<path d="M234.26 320.23L235.4 323.48L229.2 324.67C221.05 325.98 213.43 324.98 210.39 321.32C217.43 325.41 226.25 324.38 234.27 320.23H234.26Z" fill="#1B938C"/>
<path d="M158.52 160.49C158.52 160.49 159.84 163.01 159.41 165.83C158.98 168.65 156.47 171.21 156.47 171.21C156.47 171.21 156.13 172.37 149.55 172.74C142.97 173.12 131.5 169.88 131.5 169.88C131.5 169.88 150.64 172.18 153.65 170.66C157.04 169.52 158.83 165.41 158.55 160.5H158.51L158.52 160.49Z" fill="#1B938C"/>
<path d="M113.66 202.75C113.66 202.75 120.05 211.55 120.87 214.91C121.69 218.27 121.07 220.29 121.07 220.29L118.07 225.7L112.88 227.99C112.88 227.99 107.64 227.64 108.61 227.59C109.58 227.54 114.31 226.88 115.53 225.74C116.53 225.07 119 222.36 119.44 220.29C119.88 218.22 120.12 216.55 119.35 214.05C118.58 211.55 113.74 202.95 113.63 202.77L113.66 202.75Z" fill="#1B938C"/>
<path d="M152.85 153.78C155.18 153 157.51 152.14 159.86 151.18C176.72 144.35 195.45 134.85 205.64 140.68C213.07 144.93 213.81 151.19 213.93 152.68C214.51 159.91 210.1 170.36 199.83 178.66C196.09 181.68 188.97 187.52 184.87 190.56C176.26 196.94 169.1 201.11 162.73 208.03C159.58 211.46 149.07 221.6 153.02 234.58C155.93 244.15 162.66 249.83 172.49 251.04C179.85 251.94 187.56 248.33 196.14 246.64C216.5 242.63 227.12 244 232.86 255.66C239.26 268.63 232.55 280.29 219.14 292.68" stroke="white" stroke-width="1.04" stroke-miterlimit="10"/>
<path d="M147.92 152C147.92 152 161.71 154.09 159.16 166.94C153.65 183.02 118.51 158.87 108.11 175.94C97.4097 192.63 125.54 207.74 120.65 221.11C115.76 234.48 97.9697 224.78 97.9697 224.78" stroke="white" stroke-width="1.04" stroke-miterlimit="10"/>
<path d="M33.8699 138.19C38.5699 135.94 45.3499 134.15 51.2699 133.73C71.8799 132.22 82.1799 139.64 91.2099 145.23C100.24 150.82 111.63 155.51 125.19 155.18C140.78 154.81 162.84 140.64 182.13 134.19" stroke="white" stroke-width="1.04" stroke-miterlimit="10"/>
<path d="M186.64 132.92C195.46 130.69 203.83 130.52 209.95 134.02C231.97 146.63 219.22 172.83 202.81 186.11C183.55 201.67 155.09 215.67 160.18 232.39C169.6 263.38 221.9 217.82 239.58 252.35C249.29 271.29 236.45 285.16 222.53 296.22L222.62 296.14C215.72 301.86 209.24 307.32 211.15 313.7C215.72 327.39 233.65 317.74 233.65 317.74L235.27 323.26C232.63 323.84 210.66 330.62 206.91 316.13C205.27 309.3 205.29 304.21 214.1 297.12C215.27 296.14 218.05 293.66 219.15 292.68" stroke="white" stroke-width="1.04" stroke-miterlimit="10"/>
<path d="M273.77 122.39C273.77 122.39 239.76 93.64 210.87 101.81C181.87 110 178.34 143.68 184.64 134.91C190.19 127.17 212.68 124.6 226.18 124.65C239.68 124.7 257.05 129.41 273.79 122.37V122.39H273.77Z" stroke="white" stroke-width="1.04" stroke-miterlimit="10"/>
<path d="M99.2198 221.04C101.08 222.02 111.57 228.97 116.46 222.21C121.35 215.45 114.82 209.21 110.78 203.43C104.66 194.71 96.4498 184.92 103.9 173.28C110.58 162.39 122.65 165.13 132.35 167.34C143.39 169.84 154.9 172.32 155.68 163.81C156.03 159.04 151.01 156.76 146.57 155.67C137.97 158.07 129.76 159.3 122.51 159.49C109.98 159.81 99.1998 155.51 91.1698 150.74C89.3298 149.65 74.5098 139.02 55.8298 138.45C49.8998 138.27 44.0398 139.66 38.7898 141.65C38.7898 141.65 43.6398 147.97 44.4098 151.4C46.0198 157.13 43.8598 164.19 42.8698 166.89" stroke="white" stroke-width="1.04" stroke-miterlimit="10"/>
<path d="M9.58984 126.59C11.9798 125.98 17.0798 124.98 21.5298 126.18C24.7298 127.03 30.3898 132.01 35.2998 137.58" stroke="white" stroke-width="1.04" stroke-miterlimit="10"/>
<path d="M87.9498 218.91C86.7198 219.3 84.9499 220.71 85.1499 222.64C85.4099 225.03 86.8599 226.96 88.8999 228.43C90.9399 229.9 95.4699 229.41 97.3299 229.63C99.1899 229.85 100.59 230.81 100.82 231.82C100.92 232.22 100.84 232.48 100.72 232.62" stroke="white" stroke-width="1.04" stroke-miterlimit="10"/>
<path d="M102.6 233.97C103.21 233.28 104.51 231.26 103.62 229.65C103.01 228.7 101.71 227.68 99.7098 227.23C97.7098 226.78 93.6498 227.33 91.3598 226.52C88.1998 225.42 87.2798 221.85 88.6298 221.63" stroke="white" stroke-width="1.04" stroke-miterlimit="10"/>
<path d="M89.2198 223.99C88.7398 221.79 87.5998 219.13 87.9898 217.65C88.4798 215.82 91.9098 212.6 91.9098 212.6C92.6998 211.86 93.3598 212.12 93.2198 213.21C93.0798 214.3 93.0198 214.71 92.5798 216.75C92.1198 217.49 89.9998 217.94 89.8498 218.5C89.4998 219.83 90.2798 222.06 90.7498 224.07" stroke="white" stroke-width="1.04" stroke-miterlimit="10"/>
<path d="M99.6699 237.43L97.7399 235.67C97.1999 237.77 96.5899 241.29 100.55 241.95C104.51 242.61 107.56 237.51 107.85 236.66L105.97 235.75C105.97 235.75 103.32 240.42 100.84 239.59C99.7099 239.21 99.6599 238.26 99.6699 237.45V237.43Z" stroke="white" stroke-width="1.04" stroke-miterlimit="10"/>
<path d="M99.1599 210.18C102.13 207.97 100.9 204.24 103.15 201.55C104.31 200.15 106.69 199.47 108.39 200.02" stroke="white" stroke-width="1.04" stroke-miterlimit="10"/>
<path d="M110.5 203.01L110.34 204.54L107.62 203.87C107.62 203.87 107.11 201.99 106.07 202.31C105.03 202.63 102.92 210.16 102.92 210.16C102.8 210.48 102.16 211.51 101.79 211.95" stroke="white" stroke-width="1.04" stroke-miterlimit="10"/>
<path d="M292.38 35.76C295.14 37.33 317.94 54.81 327.04 54.63C336.14 54.45 337.57 51.57 337.57 51.57C337.57 51.57 339.37 47.74 337.28 45.33C335.19 42.92 326.91 38.6 321.87 38.86C318.1 39.06 299.94 34.98 293.48 33.74C291.31 33.34 289.61 34.22 292.37 35.79V35.77L292.38 35.76Z" fill="#6B5CA8"/>
<path d="M196.26 78.02C196.26 78.02 211.27 101.59 218.95 105.49C226.63 109.39 231.95 108.34 234.78 107.04C237.61 105.74 240.63 101.56 240.51 96.46C240.43 92.25 231.71 89.9 226.94 88.57C222.98 87.47 204.38 78.51 197.93 76.1C195.47 74.2 193.5 74.57 196.28 78.01H196.26V78.02Z" fill="#6B5CA8"/>
<path d="M105.76 95.59C105.76 95.59 107.08 94.75 108.19 94.16C112.13 92.09 123.43 89.99 128.29 90.47C133.15 90.95 141.05 88.94 143.09 85.83C145.13 82.72 146.43 77.71 143.72 73.95C140.7 69.77 129.12 75.32 124.42 77.95C119.72 80.58 109.82 89.24 105.36 94.07C102.84 96.79 105.76 95.57 105.76 95.57V95.59Z" fill="#948FC5"/>
<path d="M74.6002 53.37C74.6002 53.37 75.7702 52.06 76.7902 51.09C80.4202 47.63 91.8302 41.63 97.0902 40.48C102.36 39.34 110.18 34.59 111.53 30.71C112.89 26.83 112.95 21.26 109.1 18.33C104.83 15.08 94.0002 24.68 89.7302 28.98C85.4602 33.28 77.2502 45.5 73.7902 51.98C71.8602 55.64 74.6102 53.39 74.6102 53.39H74.5902L74.6002 53.37Z" fill="#948FC5"/>
<path d="M230.71 33.58C230.71 33.58 232.1 33.92 233.19 34.29C237.06 35.58 245.59 41.76 248.32 45.31C251.05 48.86 257.38 52.84 260.73 52.18C264.08 51.52 268.23 49.13 269.04 44.89C269.93 40.16 258.94 36.04 254.23 34.6C249.52 33.16 237.51 32.19 231.48 32.36C228.08 32.45 230.73 33.6 230.73 33.6V33.58H230.71Z" fill="#6B5CA8"/>
<path d="M92.9801 195.83C90.7201 198.96 78.2701 200.33 74.3101 193.93C69.7901 188.3 59.9101 178.81 52.7601 172.15C47.3601 167.11 42.3701 164.66 42.0801 166C41.9201 165.11 38.1101 162.89 39.5801 160.39C49.6101 156.22 84.1501 177.33 87.2101 178.92C91.2101 180.99 95.2401 192.7 92.9801 195.83Z" fill="#948FC5"/>
<path d="M21.0701 151.76C21.0701 151.76 23.4801 149.39 25.3401 145.52C27.2001 141.65 62.2601 141.7 71.9301 142.47C81.6001 143.24 94.4001 145.43 99.6201 147.81C104.84 150.19 104.39 158.27 102.22 161.9C100.05 165.53 91.0701 165.55 78.7701 158.93C63.7301 148.98 30.1801 146.51 29.7601 150.85C25.1701 150.76 21.0601 151.76 21.0601 151.76H21.0801H21.0701Z" fill="#948FC5"/>
<path d="M54.7601 164.25C45.1501 157.98 36.4001 153.03 35.1201 154.65C30.3401 154.03 30.1201 153.09 30.1201 153.09C30.1201 153.09 30.3601 152.09 32.7601 147.85C35.1601 143.61 60.5101 152.95 70.5101 154.97C80.5101 156.99 84.8901 162.15 90.0401 165.51C95.1901 168.87 101.49 175.93 98.8201 179.87C97.5301 181.76 95.0001 183.81 91.4001 184.39" fill="#948FC5"/>
<path d="M20.8301 143.39L16.8401 136.57L50.3801 129.51C50.3801 129.51 89.2801 120.9 96.9201 123.97C104.56 127.03 103.98 138.88 94.0501 141.99C91.4001 142.82 86.4401 143.7 81.0001 142.02C65.0701 137.12 33.3901 139.17 28.0401 139.76C22.6901 140.36 20.8501 143.41 20.8501 143.41H20.8301V143.39Z" fill="#948FC5"/>
<path d="M15.3501 141.03L10.5901 138.69L22.0701 130.41C22.0701 130.41 39.5501 118.71 44.1501 116.68C48.7501 114.65 77.6801 100.7 85.3601 100.1C93.0401 99.49 100.01 102.53 100.71 110.67C101.41 118.81 89.2301 118.58 82.5001 119.98C75.7701 121.38 43.5301 127.35 25.5801 132.87C21.7701 134.13 23.9701 134.85 21.9801 136.01C19.9901 137.17 15.3601 141.04 15.3601 141.04L15.3501 141.03Z" fill="#948FC5"/>
<path d="M16.9202 134.91L12.6602 131.44C12.6602 131.44 14.1302 130.43 16.9802 126.17C21.2802 116.49 45.8902 91.12 54.9202 86.46C63.9502 81.8 77.6602 76.95 81.6802 84.29C85.7002 91.63 71.1402 96.31 65.8202 99.84C60.5002 103.37 21.0102 125.29 20.1202 131.43C18.4702 133.27 16.9102 134.91 16.9102 134.91H16.9202Z" fill="#948FC5"/>
<path d="M11.3801 133.22C11.3801 133.22 9.13007 134.25 9.31007 131.38C8.88007 129.01 11.1101 124.82 14.0201 114.38C16.4201 105.74 28.9301 69.84 37.2001 62.74C46.2301 53.4 57.3901 61.02 56.7501 68.07C56.1101 75.12 45.0701 80.73 42.9901 83.71C33.8401 90.56 15.3601 121.75 13.3701 130.51C12.2101 135.62 11.3701 133.21 11.3701 133.21L11.3801 133.22Z" fill="#948FC5"/>
<path d="M13.8101 133.97L7.55007 123.8C7.55007 123.8 9.23007 123.9 8.81007 115.97C8.38007 108.05 0.350073 74.03 4.22007 61.64C8.11007 49.24 17.3201 47.25 20.6501 49.38C23.9801 51.51 26.0701 63.8 20.8601 72.48C15.6501 81.15 9.52007 127.03 13.8101 134V133.98V133.97Z" fill="#948FC5"/>
<path d="M85.26 77.06C85.26 77.06 101.53 68.75 103.98 67.42C106.43 66.09 109.16 63.87 108.92 61.88C108.68 59.89 107.92 56.77 104.98 55.68C102.04 54.59 98.06 56.43 93.9 61C89.75 65.58 84.25 75.4 84.25 75.4C83.54 76.53 83.72 77.46 85.26 77.08V77.06Z" fill="#6B5CA8"/>
<path d="M133.06 47.45C133.06 47.45 144.16 44.89 148.3 45.56C152.44 46.23 158.91 49.51 161.61 48.13C164.31 46.75 163.69 43.29 161.63 40.77C159.58 38.24 154.83 37.59 148.33 39.11C141.83 40.65 130.99 45.81 130.99 45.81C129.66 46.37 129.44 47.83 133.06 47.47V47.45Z" fill="#948FC5"/>
<path d="M261.04 69.65C261.04 69.65 276.88 78.79 279.32 80.11C281.76 81.43 285.12 82.52 286.67 81.24C288.22 79.96 290.43 77.62 289.73 74.56C289.03 71.5 285.32 69.15 279.24 68.15C273.16 67.15 261.92 67.87 261.92 67.87C260.57 67.87 259.89 68.55 261.05 69.62V69.64L261.04 69.65Z" fill="#948FC5"/>
<path d="M250.57 4.44999C250.57 4.44999 275.53 10.51 279.33 11.37C283.13 12.23 288.02 12.69 289.42 11.22C290.82 9.74999 292.58 7.13999 290.22 4.33999C287.86 1.53999 281.91 -0.0700053 273.53 -5.31483e-06C265.15 0.0699947 250.86 2.62999 250.86 2.62999C249.11 2.85999 248.55 3.61999 250.56 4.44999H250.58H250.57Z" fill="#948FC5"/>
<path d="M138.51 15.96C138.51 15.96 149.28 13.18 158.7 16.64C165.53 19.15 173.09 25.57 174.35 26.21C177.33 27.73 181.47 28.83 183.36 27.07C185.25 25.31 187.98 22.79 187.15 18.93C186.32 15.07 186.08 11.76 175.52 7.85C164.96 3.96 142.81 11.66 139.37 12.75C135.93 13.84 135.63 16.49 138.52 15.97V15.95L138.51 15.96Z" fill="#6B5CA8"/>
<path d="M280.9 95.08C280.9 95.08 289.65 104.26 301.53 107.74C310.14 110.28 322.3 110.27 324.01 110.59C328.08 111.37 333 113.21 333.61 115.81C334.22 118.41 335.15 122.13 331.53 124.57C327.91 127.01 325.28 129.4 311.95 125.51C298.62 121.63 282.05 101.18 279.42 98.12C276.79 95.06 278.37 92.8 280.9 95.1V95.08Z" fill="#948FC5"/>
<path d="M96.24 123.53C99.12 122.72 105.12 129.69 102.42 135.82L97.2 141.15C97.2 141.15 89.14 144.53 86.53 142.9C80.48 141 44.81 136.17 25.03 140.09L25.85 137.45C25.85 137.45 26.11 136.99 39.66 136.61C56.58 136.13 84.58 136.9 88.48 135.84C95.81 135.78 96.42 124.64 96.24 123.52V123.54V123.53Z" fill="#7672B5"/>
<path d="M93.99 146.9C94.14 145.25 104.23 148.6 103.6 155.43C103.19 159.88 101.69 163.08 101.69 163.08L94.6 164.73C94.6 164.73 78.92 161.47 78.58 161.56C78.24 161.65 36.04 149.51 36.04 149.51L30.46 147.83L31.74 144.14L35.11 143.39C35.11 143.39 50.67 144.18 58.44 146.63C66.21 149.08 77.93 151.1 87.03 151.19C96.14 151.28 93.99 146.88 93.99 146.88V146.9Z" fill="#7672B5"/>
<path d="M25.2199 130.07L63.29 117.09L88.33 109.79C88.33 109.79 75.63 112.13 68.8 113.88C61.97 115.63 25.2 130.08 25.2 130.08H25.2199V130.07Z" fill="#7672B5"/>
<path d="M12.3598 132.66C12.3598 132.66 33.4998 113.42 45.3098 103.88C57.1298 94.34 70.2398 88.3 70.2398 88.3C70.2398 88.3 60.2598 90.96 53.3998 95.93C46.5498 100.92 38.6598 107.59 34.0198 111.96C29.3598 116.34 12.3298 132.67 12.3298 132.67V132.65L12.3598 132.66Z" fill="#7672B5"/>
<path d="M92.9798 195.83C91.5298 199.02 78.7698 199.97 75.0898 194.98C73.6998 193.61 77.2498 190.57 74.0598 185.98C70.8698 181.39 58.3198 174.49 51.1598 167.83C45.7598 162.79 42.3598 164.65 42.0698 166C41.9098 165.11 38.0998 162.89 39.5698 160.39C49.5998 156.22 84.1398 177.33 87.1998 178.92C91.1998 180.99 94.5798 192.31 92.9698 195.83H92.9798Z" fill="#7672B5"/>
<path d="M54.7599 164.25C45.1499 157.98 36.3999 153.03 35.1199 154.65C30.3399 154.03 30.1199 153.09 30.1199 153.09C30.1199 153.09 30.3599 152.09 32.7599 147.85C35.1599 143.61 60.5099 152.95 70.5099 154.97C80.5099 156.99 84.8899 162.15 90.0399 165.51C95.1899 168.87 101.49 175.93 98.8199 179.87C97.5299 181.76 94.9999 183.81 91.3999 184.39" fill="#7672B5"/>
<path d="M14.3799 121.3C14.3799 121.3 26.9199 89.79 33.0699 81.3C39.2199 72.81 46.4499 67.43 46.4499 67.43C46.4499 67.43 39.0599 72.77 36.5099 75.25C33.9599 77.73 26.9699 89.45 24.5899 94.62C22.2099 99.79 14.3899 121.3 14.3899 121.3H14.3699H14.3799Z" fill="#7672B5"/>
<path d="M11.28 118.22C11.28 118.22 12.21 108.78 11.71 102.63C11.21 96.48 10.19 78.68 10.71 75.28C11.23 71.88 14.75 58.56 14.75 58.56C14.75 58.56 10.04 69.01 9.57995 74.78C9.11995 80.55 10.76 99 11.01 105.35C11.26 111.71 11.28 118.24 11.28 118.24V118.22Z" fill="#7672B5"/>
<path d="M83.6801 192.5C83.6801 192.5 79.5101 185.76 77.1301 183.72C74.7501 181.68 50.5601 166.06 50.5601 166.06C50.5601 166.06 74.9501 180.22 77.7401 182.5C80.5301 184.78 83.6901 192.49 83.6901 192.49H83.6701L83.6801 192.5Z" fill="#6B5CA8"/>
<path d="M44.3398 153.27C44.3398 153.27 75.8798 167.45 80.1398 169.19C84.3998 170.93 90.7798 177.48 90.7798 177.48C90.7798 177.48 88.3198 172.88 84.6798 169.84C81.0398 166.8 75.5298 166 70.4798 163.99C65.4298 161.98 44.3598 153.26 44.3598 153.26H44.3398V153.27Z" fill="#6B5CA8"/>
<path d="M31.6099 135.68C31.6099 135.68 55.5999 132.52 61.1499 131.98C66.6999 131.44 85.7199 131.46 85.7199 131.46C85.7199 131.46 80.0699 129.02 66.7799 130.46C53.4899 131.9 31.8499 135.73 31.6099 135.7V135.68Z" fill="#7672B5"/>
<path d="M68.3399 151.62L37.95 146.47C37.95 146.47 70.7299 151.15 74.18 151.75C77.6199 152.35 92.6999 156.66 92.6999 156.66L68.3399 151.63V151.62Z" fill="#6B5CA8"/>
<path d="M20.8298 143.39L16.8398 136.57L50.3798 129.51C50.3798 129.51 89.2798 120.9 96.9198 123.97C104.56 127.03 103.98 138.88 94.0499 141.99C91.3999 142.82 86.4398 143.7 80.9998 142.02C65.0698 137.12 33.3898 139.17 28.0398 139.76C22.6898 140.36 20.8498 143.41 20.8498 143.41H20.8298V143.39Z" stroke="white" stroke-width="1.04" stroke-miterlimit="10"/>
<path d="M15.3498 141.03L10.5898 138.69L22.0698 130.41C22.0698 130.41 39.5498 118.71 44.1498 116.68C48.7498 114.65 77.6798 100.7 85.3598 100.1C93.0398 99.49 100.01 102.53 100.71 110.67C101.41 118.81 89.2298 118.58 82.4998 119.98C75.7698 121.38 43.5298 127.35 25.5798 132.87C21.7698 134.13 23.9698 134.85 21.9798 136.01C19.9898 137.17 15.3598 141.04 15.3598 141.04L15.3498 141.03Z" stroke="white" stroke-width="1.04" stroke-miterlimit="10"/>
<path d="M16.9199 134.91L12.6599 131.44C12.6599 131.44 14.1299 130.43 16.9799 126.17C21.2799 116.49 45.8899 91.12 54.9199 86.46C63.9499 81.8 77.6599 76.95 81.6799 84.29C85.6999 91.63 71.1399 96.31 65.8199 99.84C60.4999 103.37 21.0099 125.29 20.1199 131.43C18.4699 133.27 16.9099 134.91 16.9099 134.91H16.9199Z" stroke="white" stroke-width="1.04" stroke-miterlimit="10"/>
<path d="M11.3798 133.22C11.3798 133.22 9.12982 134.25 9.30982 131.38C8.87982 129.01 11.1098 124.82 14.0198 114.38C16.4198 105.74 28.9298 69.84 37.1998 62.74C46.2298 53.4 57.3898 61.02 56.7498 68.07C56.1098 75.12 45.0698 80.73 42.9898 83.71C33.8398 90.56 15.3598 121.75 13.3698 130.51C12.2098 135.62 11.3698 133.21 11.3698 133.21L11.3798 133.22Z" stroke="white" stroke-width="1.04" stroke-miterlimit="10"/>
<path d="M7.64993 123.77C7.64993 123.77 9.32993 123.87 8.90993 115.94C8.47993 108.02 0.449927 74 4.31993 61.61C8.20993 49.21 17.4199 47.22 20.7499 49.35C24.0799 51.48 26.1499 63.76 20.9599 72.45C17.3299 78.5 12.2899 118.63 12.5699 119.08" stroke="white" stroke-width="1.04" stroke-miterlimit="10"/>
<path d="M92.9799 195.83C90.7199 198.96 78.2698 200.33 74.3098 193.93C69.7898 188.3 59.9098 178.81 52.7598 172.15C47.3598 167.11 42.3699 164.66 42.0799 166C41.9199 165.11 38.1099 162.89 39.5799 160.39C49.6099 156.22 84.1499 177.33 87.2099 178.92C91.2099 180.99 95.2399 192.7 92.9799 195.83Z" stroke="white" stroke-width="1.04" stroke-miterlimit="10"/>
<path d="M21.2099 152.61C21.2099 152.61 23.6199 150.24 25.4799 146.37C27.3399 142.5 62.4 142.55 72.07 143.32C81.74 144.09 94.5399 146.28 99.7599 148.66C104.98 151.04 104.53 159.12 102.36 162.75C100.19 166.38 91.21 166.4 78.91 159.78C63.87 149.83 30.32 147.36 29.9 151.7C25.3099 151.61 21.2 152.61 21.2 152.61H21.2199H21.2099Z" stroke="white" stroke-width="1.04" stroke-miterlimit="10"/>
<path d="M86.7998 163.18C87.8798 164.02 88.9598 164.81 90.0498 165.53C95.1998 168.89 101.5 175.95 98.8298 179.89C97.5498 181.74 95.0698 183.75 91.5398 184.37" stroke="white" stroke-width="1.04" stroke-miterlimit="10"/>
<path d="M43.05 167.59C32.82 151.49 21.77 137.49 9.71 126.13C-1.36 130.82 0.119996 142.2 1.86 148.68C3.6 155.16 1.57 168.11 2.71 169.1C3.85 170.09 9.23 162.9 14.1 164.34C26.11 175.2 39.68 171.53 43.06 167.57" fill="#F4DB72"/>
<path d="M22.9499 168.98C27.9599 171.14 33.4699 172.05 40.5399 169.2L42.9299 166.82C39.5099 160.24 36.3799 155.4 33.9799 154.65C40.1899 167.9 34.4799 170.94 22.9399 168.99H22.9599L22.9499 168.98Z" fill="#EBCC4C"/>
<path d="M22.5501 156.915C25.3691 156.462 27.2867 153.809 26.8332 150.99C26.3796 148.17 23.7266 146.253 20.9076 146.706C18.0885 147.16 16.1709 149.813 16.6245 152.632C17.078 155.451 19.731 157.369 22.5501 156.915Z" fill="#D6B6D6"/>
<path d="M11.4503 147.716C12.622 147.612 13.4877 146.578 13.3837 145.406C13.2798 144.234 12.2456 143.369 11.0738 143.473C9.90205 143.577 9.03642 144.611 9.14038 145.783C9.24434 146.954 10.2785 147.82 11.4503 147.716Z" fill="#3F273A"/>
<path d="M3.10005 150.5C5.59005 155.3 11.4 162.25 13.96 164.17C12.23 164.54 10.22 164.21 8.72005 165.24C7.00005 166.41 3.99005 169.51 2.71005 169.08C0.680048 168.43 3.84005 157.47 2.06005 150.14C1.58005 148.12 1.46005 148.34 3.10005 150.5Z" fill="#EBCC4C"/>
<path d="M18.8999 151.4C19.1871 151.4 19.4199 151.167 19.4199 150.88C19.4199 150.593 19.1871 150.36 18.8999 150.36C18.6127 150.36 18.3799 150.593 18.3799 150.88C18.3799 151.167 18.6127 151.4 18.8999 151.4Z" fill="#ECA720"/>
<path d="M13.4499 157.41C13.7371 157.41 13.9699 157.177 13.9699 156.89C13.9699 156.603 13.7371 156.37 13.4499 156.37C13.1627 156.37 12.9299 156.603 12.9299 156.89C12.9299 157.177 13.1627 157.41 13.4499 157.41Z" fill="#ECA720"/>
<path d="M8.64012 156.26C8.92731 156.26 9.16012 156.027 9.16012 155.74C9.16012 155.453 8.92731 155.22 8.64012 155.22C8.35293 155.22 8.12012 155.453 8.12012 155.74C8.12012 156.027 8.35293 156.26 8.64012 156.26Z" fill="#ECA720"/>
<path d="M5.64012 159.71C5.92731 159.71 6.16012 159.477 6.16012 159.19C6.16012 158.903 5.92731 158.67 5.64012 158.67C5.35293 158.67 5.12012 158.903 5.12012 159.19C5.12012 159.477 5.35293 159.71 5.64012 159.71Z" fill="#ECA720"/>
<path d="M4.89012 151.68C5.17731 151.68 5.41012 151.447 5.41012 151.16C5.41012 150.873 5.17731 150.64 4.89012 150.64C4.60293 150.64 4.37012 150.873 4.37012 151.16C4.37012 151.447 4.60293 151.68 4.89012 151.68Z" fill="#ECA720"/>
<path d="M3.93992 157.75C4.22711 157.75 4.45992 157.517 4.45992 157.23C4.45992 156.943 4.22711 156.71 3.93992 156.71C3.65273 156.71 3.41992 156.943 3.41992 157.23C3.41992 157.517 3.65273 157.75 3.93992 157.75Z" fill="#ECA720"/>
<path d="M16.06 156.31C16.3472 156.31 16.58 156.077 16.58 155.79C16.58 155.503 16.3472 155.27 16.06 155.27C15.7729 155.27 15.54 155.503 15.54 155.79C15.54 156.077 15.7729 156.31 16.06 156.31Z" fill="#ECA720"/>
<path d="M41.8901 167.98C42.1773 167.98 42.4101 167.747 42.4101 167.46C42.4101 167.173 42.1773 166.94 41.8901 166.94C41.6029 166.94 41.3701 167.173 41.3701 167.46C41.3701 167.747 41.6029 167.98 41.8901 167.98Z" fill="#ECA720"/>
<path d="M24.6599 154.95C24.9471 154.95 25.1799 154.717 25.1799 154.43C25.1799 154.143 24.9471 153.91 24.6599 153.91C24.3727 153.91 24.1399 154.143 24.1399 154.43C24.1399 154.717 24.3727 154.95 24.6599 154.95Z" fill="#ECA720"/>
<path d="M27.74 153.73C28.0272 153.73 28.26 153.497 28.26 153.21C28.26 152.923 28.0272 152.69 27.74 152.69C27.4528 152.69 27.22 152.923 27.22 153.21C27.22 153.497 27.4528 153.73 27.74 153.73Z" fill="#ECA720"/>
<path d="M23.82 151.19C24.1072 151.19 24.34 150.957 24.34 150.67C24.34 150.383 24.1072 150.15 23.82 150.15C23.5329 150.15 23.3 150.383 23.3 150.67C23.3 150.957 23.5329 151.19 23.82 151.19Z" fill="#ECA720"/>
<path d="M27.3 151.11C27.5872 151.11 27.82 150.877 27.82 150.59C27.82 150.303 27.5872 150.07 27.3 150.07C27.0128 150.07 26.78 150.303 26.78 150.59C26.78 150.877 27.0128 151.11 27.3 151.11Z" fill="#ECA720"/>
<path d="M20.49 153.99C20.7772 153.99 21.01 153.757 21.01 153.47C21.01 153.183 20.7772 152.95 20.49 152.95C20.2028 152.95 19.97 153.183 19.97 153.47C19.97 153.757 20.2028 153.99 20.49 153.99Z" fill="#ECA720"/>
<path d="M20.8301 156.56C21.1172 156.56 21.3501 156.327 21.3501 156.04C21.3501 155.753 21.1172 155.52 20.8301 155.52C20.5429 155.52 20.3101 155.753 20.3101 156.04C20.3101 156.327 20.5429 156.56 20.8301 156.56Z" fill="#ECA720"/>
<path d="M17.8 158.49C18.0872 158.49 18.32 158.257 18.32 157.97C18.32 157.683 18.0872 157.45 17.8 157.45C17.5128 157.45 17.28 157.683 17.28 157.97C17.28 158.257 17.5128 158.49 17.8 158.49Z" fill="#ECA720"/>
<path d="M22.7199 148.6C23.0071 148.6 23.24 148.367 23.24 148.08C23.24 147.793 23.0071 147.56 22.7199 147.56C22.4328 147.56 22.2 147.793 22.2 148.08C22.2 148.367 22.4328 148.6 22.7199 148.6Z" fill="#ECA720"/>
<path d="M23.0801 145.35C23.3672 145.35 23.6001 145.117 23.6001 144.83C23.6001 144.543 23.3672 144.31 23.0801 144.31C22.7929 144.31 22.5601 144.543 22.5601 144.83C22.5601 145.117 22.7929 145.35 23.0801 145.35Z" fill="#ECA720"/>
<path d="M14.1001 154.02C14.3873 154.02 14.6201 153.787 14.6201 153.5C14.6201 153.213 14.3873 152.98 14.1001 152.98C13.8129 152.98 13.5801 153.213 13.5801 153.5C13.5801 153.787 13.8129 154.02 14.1001 154.02Z" fill="#ECA720"/>
<path d="M10.29 153.32C10.5772 153.32 10.81 153.087 10.81 152.8C10.81 152.513 10.5772 152.28 10.29 152.28C10.0028 152.28 9.77002 152.513 9.77002 152.8C9.77002 153.087 10.0028 153.32 10.29 153.32Z" fill="#ECA720"/>
<path d="M15.4499 151.1C15.7371 151.1 15.9699 150.867 15.9699 150.58C15.9699 150.293 15.7371 150.06 15.4499 150.06C15.1627 150.06 14.9299 150.293 14.9299 150.58C14.9299 150.867 15.1627 151.1 15.4499 151.1Z" fill="#ECA720"/>
<path d="M7.24998 151.86C7.53717 151.86 7.76998 151.627 7.76998 151.34C7.76998 151.053 7.53717 150.82 7.24998 150.82C6.96279 150.82 6.72998 151.053 6.72998 151.34C6.72998 151.627 6.96279 151.86 7.24998 151.86Z" fill="#ECA720"/>
<path d="M3.55003 153.35C3.83722 153.35 4.07003 153.117 4.07003 152.83C4.07003 152.543 3.83722 152.31 3.55003 152.31C3.26284 152.31 3.03003 152.543 3.03003 152.83C3.03003 153.117 3.26284 153.35 3.55003 153.35Z" fill="#ECA720"/>
<path d="M5.23997 155.51C5.52716 155.51 5.75997 155.277 5.75997 154.99C5.75997 154.703 5.52716 154.47 5.23997 154.47C4.95278 154.47 4.71997 154.703 4.71997 154.99C4.71997 155.277 4.95278 155.51 5.23997 155.51Z" fill="#ECA720"/>
<path d="M17.9499 150.21C18.2371 150.21 18.4699 149.977 18.4699 149.69C18.4699 149.403 18.2371 149.17 17.9499 149.17C17.6627 149.17 17.4299 149.403 17.4299 149.69C17.4299 149.977 17.6627 150.21 17.9499 150.21Z" fill="#ECA720"/>
<path d="M24.32 157.87C24.6072 157.87 24.84 157.637 24.84 157.35C24.84 157.063 24.6072 156.83 24.32 156.83C24.0329 156.83 23.8 157.063 23.8 157.35C23.8 157.637 24.0329 157.87 24.32 157.87Z" fill="#ECA720"/>
<path d="M21 149.88C21.2872 149.88 21.52 149.647 21.52 149.36C21.52 149.073 21.2872 148.84 21 148.84C20.7128 148.84 20.48 149.073 20.48 149.36C20.48 149.647 20.7128 149.88 21 149.88Z" fill="#ECA720"/>
<path d="M21.25 146.44C21.5372 146.44 21.77 146.207 21.77 145.92C21.77 145.633 21.5372 145.4 21.25 145.4C20.9628 145.4 20.73 145.633 20.73 145.92C20.73 146.207 20.9628 146.44 21.25 146.44Z" fill="#ECA720"/>
<path d="M7.01991 127.04C6.32991 127.78 7.41991 127.04 7.41991 127.04C20.5599 137.35 32.7299 151.49 41.8699 168.65L42.4199 168.04C43.9399 167.57 47.5199 169.88 47.8999 169.02C48.2799 168.16 44.0899 166.16 43.9799 165.76C43.8899 165.44 48.3199 164.66 47.7099 164.14C47.0999 163.62 42.5799 163.84 42.5199 163.35C42.4099 162.35 44.4999 161.58 43.8599 161.01C42.7099 159.99 39.9499 160.64 39.3399 159.62C38.6099 158.37 40.2099 156.54 39.8799 156.03C38.5499 153.97 36.2799 155.77 34.9699 153.95C33.6599 152.13 37.0699 150.02 35.7399 148.62C34.4099 147.22 31.9599 148.3 31.4699 147.64C30.9799 146.98 33.0399 143.34 32.4699 142.77C31.8999 142.2 28.4199 143.3 27.8399 142.64C27.2599 141.98 29.4399 139.19 28.8599 138.41C28.2799 137.63 25.6299 140.1 24.7699 139.24C23.9099 138.38 25.5899 135.94 25.4699 134.97C25.3499 134 22.3899 136.71 21.5599 135.91C20.7299 135.11 23.9699 133.16 23.3399 132.58C22.7099 132 19.6099 134.14 19.0599 133.64C18.5099 133.14 20.1099 129.41 19.3699 128.89C18.6299 128.37 16.2199 131.01 15.3999 130.49C14.5799 129.97 16.4599 127.15 15.6099 126.23C15.1399 125.73 12.5899 128.06 11.4599 127.14C11.0399 126.8 11.9999 124.39 11.7599 124.32C11.4799 124.24 10.3699 126.58 10.0999 126.44C9.82991 126.3 10.0099 123.48 9.51991 123.59C9.24991 123.65 9.02991 125.21 8.70991 125.77C8.59991 125.98 7.93991 122.86 7.83991 123.74C7.73991 124.62 7.69991 126.25 7.00991 126.99" fill="#EBCC4C"/>
<path d="M7.01995 127.04C-1.50005 132.25 0.239953 142.71 1.84995 148.71C3.58995 155.19 1.55995 168.14 2.69995 169.13C3.83995 170.12 9.21995 162.93 14.09 164.37C26.1 175.23 39.67 171.56 43.05 167.6C44.57 167.13 47.52 169.89 47.91 169.03C48.3 168.17 44.1 166.17 43.99 165.77C43.9 165.45 48.33 164.67 47.72 164.15C47.11 163.63 42.59 163.85 42.53 163.36C42.42 162.36 44.51 161.59 43.87 161.02C42.72 160 39.96 160.65 39.35 159.63C38.62 158.38 40.22 156.55 39.89 156.04C38.56 153.98 36.29 155.78 34.98 153.96C33.67 152.14 37.08 150.03 35.75 148.63C34.42 147.23 31.97 148.31 31.48 147.65C30.99 146.99 33.05 143.35 32.48 142.78C31.91 142.21 28.43 143.31 27.85 142.65C27.27 141.99 29.45 139.2 28.87 138.42C28.29 137.64 25.64 140.11 24.78 139.25C23.92 138.39 25.6 135.95 25.48 134.98C25.36 134.01 22.4 136.72 21.57 135.92C20.74 135.12 23.98 133.17 23.35 132.59C22.72 132.01 19.62 134.15 19.07 133.65C18.52 133.15 20.12 129.42 19.38 128.9C18.64 128.38 16.23 131.02 15.41 130.5C14.59 129.98 16.47 127.16 15.62 126.24C15.15 125.74 12.6 128.07 11.47 127.15C11.05 126.81 12.01 124.4 11.77 124.33C11.49 124.25 10.38 126.59 10.11 126.45C9.83995 126.31 10.02 123.49 9.52995 123.6C9.25995 123.66 9.03995 125.22 8.71995 125.78C8.60995 125.99 7.94995 122.87 7.84995 123.75C7.74995 124.63 7.88995 126.48 7.01995 127V127.04Z" stroke="white" stroke-width="1.04" stroke-miterlimit="10"/>
</svg>
