<svg width="1065" height="577" viewBox="0 0 1065 577" fill="none" xmlns="http://www.w3.org/2000/svg">
<g clip-path="url(#clip0_16_114)">
<path d="M-67.4398 574.092C-11.4754 447.921 40.9339 416.565 80.0237 413.171C126 409.18 154.568 443.778 185.241 427.511C236.686 400.234 204.18 277.576 239.444 265.793C273.711 254.346 318.675 365.397 378.936 357.407C414.925 352.635 414.957 310.891 457.052 299.252C518.341 282.308 556.267 360.291 610.095 347.05C669.997 332.313 655.809 227.698 728.863 194.096C783.998 168.739 823.256 214.004 881.109 203.656C934.284 194.144 1001.67 137.925 1058.07 -75.1677" stroke="#1B938C" stroke-width="18" stroke-miterlimit="10"/>
</g>
<defs>
<clipPath id="clip0_16_114">
<rect width="1139" height="654" fill="white" transform="translate(-74 -77)"/>
</clipPath>
</defs>
</svg>
