<?xml version="1.0" encoding="UTF-8"?>
<svg id="Layer_2" data-name="Layer 2" xmlns="http://www.w3.org/2000/svg" xmlns:xlink="http://www.w3.org/1999/xlink" viewBox="0 0 191.78 218.79">
  <defs>
    <style>
      .cls-1 {
        fill: #9ca2a2;
      }

      .cls-1, .cls-2, .cls-3, .cls-4, .cls-5, .cls-6, .cls-7, .cls-8, .cls-9, .cls-10, .cls-11, .cls-12, .cls-13, .cls-14, .cls-15, .cls-16, .cls-17 {
        stroke-width: 0px;
      }

      .cls-2 {
        fill: #1b938c;
      }

      .cls-3 {
        fill: #ebcc4c;
      }

      .cls-18 {
        clip-path: url(#clippath);
      }

      .cls-4, .cls-19, .cls-20, .cls-21, .cls-22, .cls-23, .cls-24 {
        fill: none;
      }

      .cls-5 {
        fill: #ddd;
      }

      .cls-25, .cls-19, .cls-20, .cls-21, .cls-22, .cls-23, .cls-24 {
        stroke-miterlimit: 10;
      }

      .cls-25, .cls-21, .cls-22 {
        stroke-width: .6px;
      }

      .cls-25, .cls-22 {
        stroke: #fff;
      }

      .cls-25, .cls-9 {
        fill: #c16eac;
      }

      .cls-19 {
        stroke: #c16eac;
        stroke-width: 1.6px;
      }

      .cls-6 {
        fill: #eca720;
      }

      .cls-20 {
        stroke-width: 1.2px;
      }

      .cls-20, .cls-21 {
        stroke: #1b938c;
      }

      .cls-7 {
        fill: #d6b6d6;
      }

      .cls-8 {
        fill: #9b568e;
      }

      .cls-23 {
        stroke: #f4db72;
        stroke-width: 2.34px;
      }

      .cls-10 {
        fill: #61c6c3;
      }

      .cls-26 {
        fill: #daa4cb;
        font-family: Metalista-Black, Metalista;
        font-size: 3.6px;
        font-weight: 800;
      }

      .cls-11 {
        fill: #7672b5;
      }

      .cls-12 {
        fill: #258e8b;
      }

      .cls-24 {
        stroke: #61c6c3;
        stroke-width: 2.25px;
      }

      .cls-13 {
        fill: #3f273a;
      }

      .cls-14 {
        fill: #f4db72;
      }

      .cls-15 {
        fill: #737576;
      }

      .cls-16 {
        fill: #d1a9cf;
      }

      .cls-17 {
        fill: #948fc5;
      }
    </style>
    <clipPath id="clippath">
      <circle class="cls-4" cx="123.04" cy="95.13" r="62.09"/>
    </clipPath>
  </defs>
  <g id="Layer_19" data-name="Layer 19">
    <g class="cls-18">
      <rect class="cls-16" width="191.78" height="160.35"/>
      <path class="cls-24" d="M88.39,116.55c-21.59-.38-23.11,20.84-23.11,20.84"/>
      <path class="cls-24" d="M96.29,29.06s-7.34,29.3,2.99,35.87c10.32,6.57,24.78-2.44,32.66,0,7.88,2.44,4.92,16.69,11.07,20.46,6.16,3.77,30.41-9.32,33.04,4,2.63,13.33-26.47,9.85-29.85,21.12s11.4,20.69,6.34,27.45c-5.07,6.76-30.7-.42-29.5-7.46,1.2-7.04,10.03-4.07,9.37,2.53-.66,6.64-5.91,23.93-17.74,21.96"/>
      <circle class="cls-19" cx="123.04" cy="95.13" r="57.43"/>
      <path class="cls-24" d="M114.67,155c-11.83-1.97-4.69-38.07-26.28-38.45"/>
      <path class="cls-11" d="M116.46,104.77l-16.53-2.79-10.28,8.88-9.26,3.49s-3.95,1.83-3.31,5.39,4.45,4.3,6.45,4.3,10.84-5.6,11.27-5.99,15.56-10.15,15.56-10.15l6.1-3.13Z"/>
      <path class="cls-11" d="M123.24,88.44l-7.53-13.11-9.35-7.9-8.99-7.49s-2.14-2.73-4.97-2.89-5.63,2.33-4.41,7.76c.25,1.78,4.97,5.72,4.97,5.72l19.23,12.34,11.05,5.58Z"/>
      <path class="cls-11" d="M119.75,88.74l-14.64-9.43-14.93-3.7s-7.51-1.11-9.61.36-2.14,4.17-1.58,6.42,4.69,3.75,4.69,3.75c0,0,14.67,2.09,14.9,1.99s17.11,1.61,17.11,1.61l5.46,1.51-1.4-2.5Z"/>
      <path class="cls-11" d="M117.8,93.38l-9.39.81-19.8,1.82-11.3,3.49s-3.67.52-5.15-1.87c-1.48-2.4-1.74-6.23.58-8.21s5.45-1.1,5.45-1.1c0,0,13.65.17,13.74.05s23.79.77,23.79.77l3.47,3.26-1.38.99Z"/>
      <path class="cls-11" d="M82.57,99.3l-3.69-.02s-5.22,3.42-3.56,9.01c1.67,5.59,5.57,5.58,5.57,5.58l15.71-12.33,22.8-5.13-1.95-2.56-34.89,5.45Z"/>
      <path class="cls-2" d="M110.21,112.86s-3.14-4.97-2.66-9.3c.48-4.33,7.43-15.01,10.74-16.49s7.66-.76,7.66-.76l-15.75,26.56Z"/>
      <path class="cls-11" d="M122.5,86.34c-.16.18,1.33-9.32,1.33-9.32,0,0-8.19-23.91-8.07-24.17s-1.28-3.57-2.38-4.42-4.94-3.16-8.89.25-.21,8.95-.21,8.95c0,0,7.3,12.11,7.33,12.3s10.88,16.4,10.88,16.4Z"/>
      <path class="cls-10" d="M15.08,215.27s11.12,3.86,12.47-4.37c1.38-10.57-28.47-10.97-21.86-32.4,6.61-21.43,40.95-.13,43.48-18.68,1.37-10.01-16.16-15.39-28.58-22.5-10.59-6.07-20.27-19.85-8.86-29.07,11.42-9.22,36.47,6.18,50.29,4.3,7.77-1.06,13.84-4.78,18.48-8.8,4.64-4.02,9.84-9.2,21.74-10.23s21.27,5.81,21.27,5.81l-1.08,2.09c-.07.1-11.75-6.85-22.36-4.81-10.61,2.04-18.09,9.47-19.04,10.26-4.14,3.46-9.9,6.9-17.08,7.87-6.24.85-13.97.52-22.07-1.33-10.25-2.35-21.81-6.05-27.09-1.79-3.85,3.11-3.7,6.76-3.63,7.61.33,4.18,3.81,9.74,10.43,13.53,2.41,1.38,7.02,4.07,9.63,5.42,5.5,2.85,9.97,4.57,14.24,7.94,2.11,1.67,9.04,6.49,7.98,14.26-.78,5.73-4.1,9.59-9.6,11.18-4.12,1.19-8.85-.16-13.9-.34-11.99-.42-17.92,1.35-20.13,8.52-2.75,8.94,3.7,15.44,14.52,21.94,5.68,3.24,6.16,6.14,5.85,10.19-.81,8.61-13.97,6.76-15.53,6.67l.42-3.3Z"/>
      <path class="cls-2" d="M51.09,114.62c5.78.65,23.44-1.45,21.6-5.62l8.48-5.83s5.69-4.89,7.44-5.73c.66-.31,6.08-3.16,13.64-3.93s13.66,2.18,14.45,2.18c.87,0-1.9,2.43-1.9,2.43,0,0-8.86-3.24-16.38-1.15-7.51,2.1-9.08,3.85-9.08,3.85l-7.15,5.02-6.77,4.97c-6.44,4.04-15.17,5.16-24.34,3.8Z"/>
      <path class="cls-22" d="M27.62,105.79c11.6,1.91,25.49,7.97,34.42,6.75,7.77-1.06,13.84-4.78,18.48-8.8,4.64-4.02,9.84-9.2,21.74-10.23,3.42-.3,7.45.1,10.34.95"/>
      <path class="cls-22" d="M111.73,94.23c2.29-3.63,5.06-6.99,6.81-7.77,2.43-1.09,5.43-.99,6.85-.86"/>
      <path class="cls-22" d="M110.1,111.65c-.81-1.45-2.69-5.28-2.3-8.7.12-2.03,2.31-6.08,2.31-6.08-3.18-.65-6.65-.91-10.02-.26-10.61,2.04-18.09,9.47-19.04,10.26-4.14,3.46-9.9,6.9-17.08,7.87-4.15.56-8.95.61-14.08.03"/>
      <path class="cls-10" d="M85.48,149.11c.6-.46,1.36-.78,2.2-1.03l-.18-1.68c-.9.61-1.84,1-2.82,1.21l.8,1.5Z"/>
      <path class="cls-22" d="M87.5,146.41c-.9.61-1.84,1-2.82,1.21l.8,1.5c.6-.46,1.36-.78,2.2-1.03"/>
      <line class="cls-22" x1="82.02" y1="153.13" x2="84.54" y2="154.51"/>
      <line class="cls-22" x1="84.63" y1="152.29" x2="87.5" y2="152.97"/>
      <line class="cls-22" x1="86.64" y1="150.75" x2="89.26" y2="150.58"/>
      <line class="cls-22" x1="80.58" y1="141.6" x2="79.41" y2="139.32"/>
      <line class="cls-22" x1="77.2" y1="141.52" x2="75.77" y2="139.56"/>
      <line class="cls-22" x1="75.86" y1="141.93" x2="74.32" y2="140.39"/>
      <line class="cls-22" x1="74.74" y1="142.7" x2="72.99" y2="141.6"/>
      <polygon class="cls-9" points="68.52 156.76 20.49 153.19 21.91 150.74 21.44 147.06 24 147.18 24.39 150.18 64.21 153.67 64.39 152.23 67.42 152.5 68.52 156.76"/>
      <path class="cls-5" d="M69.81,143.65l9.39.54c2.49.14,7.64,2.51,6.88,9.03-.76,6.52-9.08,6.8-9.08,6.8l-.07-2.16c.26-.01,6.48-.32,7.01-4.9.22-1.91-.17-3.48-1.16-4.66-1.14-1.35-2.84-1.92-3.71-1.97l-9.2-.53"/>
      <polygon class="cls-1" points="21.87 147.08 19.7 129.64 21.48 129.75 23.55 147.21 21.87 147.08"/>
      <path class="cls-9" d="M9.2,133.43c3.79.35,6.98-2.62,11.8-2.11s8.17,1,9.93,1.07c2.27.23,2.61-2.8.56-3.33-.65-.12-3.69-.5-7.98-1.37s-13.29-3.52-16.05-3.42c-6.02.33-5.39,9.17,1.73,9.16Z"/>
      <polygon class="cls-1" points="64.97 152.46 63.77 143.6 69.79 143.94 69.7 145.49 66.02 145.25 66.99 152.58 64.97 152.46"/>
      <text class="cls-26" transform="translate(27.5 152.98) rotate(5.05)"><tspan x="0" y="0">femme n them</tspan></text>
      <path class="cls-8" d="M28.96,150.54c-2.41-.33-3.63,2.32-3.51,2.97l-.76-.07.24,1.78c-.64-1.14-1.8-1.03-2.87.37l-.11-1.21-.86,1.48c.2-1.47-.42-1.67-1.44-1.26l2.25-3.8-.47-3.74,2.51.15.46,2.9,4.56.43Z"/>
      <path class="cls-8" d="M5.73,124.72c.43,5.69,3.66,7.62,5.21,8.53l4.54-1.27-4.98-7.75-3.32-.03-1.45.51Z"/>
      <polygon class="cls-15" points="24.31 148.56 21.58 148.39 21.45 147.35 24.13 147.35 24.31 148.56"/>
      <polygon class="cls-8" points="18.66 159.59 19.52 158.13 18.85 156.54 17.96 158.06 18.66 159.59"/>
      <polygon class="cls-15" points="64.12 146.89 66.4 147.31 66.51 148.91 64.35 148.53 64.12 146.89"/>
      <polygon class="cls-15" points="20.96 138.87 21.14 141.22 22.79 142.1 22.52 139.85 20.96 138.87"/>
      <polygon class="cls-15" points="20.07 131.26 21.33 131.35 21.62 134.38 20.07 133.54 20.07 131.26"/>
      <line class="cls-25" x1="21.95" y1="154.3" x2="21.96" y2="154.38"/>
      <path class="cls-22" d="M83.13,145.7c-1.35-.99-2.87-1.45-3.92-1.51l-9.39-.54-.12,2.13"/>
      <path class="cls-22" d="M69.68,145.8l9.39.54c.87.05,2.57.62,3.71,1.97.99,1.18,1.38,2.75,1.16,4.66-.53,4.58-6.75,4.89-7.01,4.9l.07,2.16s8.32-.28,9.08-6.8c.28-2.36-.22-4.17-1.09-5.54"/>
      <line class="cls-22" x1="21.44" y1="147.06" x2="24.21" y2="147.22"/>
      <polygon class="cls-22" points="64.97 152.46 63.77 143.6 69.79 143.94 69.7 145.49 66.02 145.25 66.99 152.58 64.97 152.46"/>
      <line class="cls-22" x1="78.23" y1="157.88" x2="80.87" y2="159.08"/>
      <line class="cls-22" x1="80.95" y1="156.86" x2="83.82" y2="157.54"/>
      <line class="cls-22" x1="82.97" y1="155.32" x2="85.58" y2="155.15"/>
      <line class="cls-22" x1="83.94" y1="152.97" x2="86.16" y2="151.72"/>
      <line class="cls-22" x1="83.23" y1="148.93" x2="83.73" y2="146.82"/>
      <line class="cls-22" x1="83.91" y1="150.84" x2="85.69" y2="149.11"/>
      <line class="cls-22" x1="81.6" y1="147.27" x2="80.83" y2="144.52"/>
      <line class="cls-22" x1="79.08" y1="146.34" x2="77.75" y2="144.11"/>
      <line class="cls-22" x1="76.58" y1="146.2" x2="74.47" y2="143.92"/>
      <line class="cls-22" x1="73.77" y1="145.82" x2="72.22" y2="143.89"/>
      <path class="cls-22" d="M9.2,133.43c3.79.35,6.98-2.62,11.8-2.11s8.17,1,9.93,1.07c2.27.23,2.61-2.8.56-3.33-.65-.12-3.69-.5-7.98-1.37s-13.29-3.52-16.05-3.42c-6.02.33-5.39,9.17,1.73,9.16Z"/>
      <path class="cls-20" d="M17.24,162.45s2.05,1.07,2.62-1.55-1.93-4.06-1.72-7.6c.24-3.31,2.39-4.95,3.49-5.48"/>
      <path class="cls-20" d="M23.18,146.21c1.59-.93,1.55-1.73,1.61-2.71.11-1.87-1.51-3.11-1.51-3.11l-3.68-3.32"/>
      <path class="cls-20" d="M74.49,136.46l-3.31,7.27s-1.89,2.53-3.19,2.68-1.3-1.14-1.3-1.14"/>
      <path class="cls-20" d="M66.84,150.6s1-.54.67-2.13c-.34-1.59-3.67-.98-4.42-2.04-.75-1.06-.21-1.96.68-2.08"/>
      <path class="cls-20" d="M64.69,150.39s-1.81.48-1.45,1.87c.39,1.17,5.96,1.53,6.77,3.25.8,1.72-1.1,3.3-1.1,3.3"/>
      <line class="cls-22" x1="19.61" y1="154.68" x2="21.9" y2="150.8"/>
      <line class="cls-22" x1="13.9" y1="164.33" x2="17.77" y2="157.79"/>
      <line class="cls-22" x1="21.96" y1="154.38" x2="20.41" y2="157.02"/>
      <polyline class="cls-22" points="21.9 150.8 21.59 148.27 21.44 147.06"/>
      <line class="cls-22" x1="22.79" y1="142.93" x2="23.28" y2="147.15"/>
      <line class="cls-22" x1="64.85" y1="151.59" x2="64.42" y2="148.39"/>
      <line class="cls-22" x1="66.47" y1="148.7" x2="66.86" y2="151.59"/>
      <polyline class="cls-22" points="67.88 145.37 66.02 145.25 66.2 146.63"/>
      <line class="cls-22" x1="64.05" y1="145.7" x2="63.77" y2="143.6"/>
      <line class="cls-22" x1="66.81" y1="162.63" x2="65.06" y2="156.56"/>
      <path class="cls-21" d="M9.89,166.42c.95-2.37-.48-3.39,1.02-4.92s4.32-.1,4.32-.1"/>
      <polyline class="cls-22" points="21.9 150.8 21.59 148.27 21.44 147.06 22.09 147.1 19.89 131.03"/>
      <path class="cls-10" d="M83.98,157.75c.08.46.14,1.01-.47,1.33-1.34.7-3.28-1.72-3.28-1.72l-.99.69c.24.46,2.45,3.09,4.65,2.35s1.53-2.69,1.03-3.84l-.94,1.18Z"/>
      <path class="cls-2" d="M6.68,119.22c1.48,5.56,5.83,12.63,14.08,17.09,8.25,4.46,27.3,12.89,28.53,19.09s-.46,7.6-.98,8.37c.73-3.8,1.37-3.62.33-6.94s-2.11-3.26-3.4-4.84-8.46-5.64-8.46-5.64c0,0-12.28-6.79-15.46-7.89-3.24-1.12-12.1-9.49-12.27-10.65-.14-.96-2.82-7.01-2.82-7.01l.46-1.58Z"/>
      <path class="cls-2" d="M46.05,114.76c-4.39-.84-12.03-2.59-16.96-3.56-5.91-1.16-9.89-1.16-11.65-.42-1.75.74-4.5,2.37-5.19,3.61-.68,1.24-1.26,2.87-1.63,5.36-.3-4.03,1.14-7.74,3.81-9.54,2.71-1.84,5.93-2.04,11.34-1.39,5.41.66,19.16,5.88,22.66,4.3-.22.31-2.39,1.65-2.39,1.65Z"/>
      <line class="cls-4" x1="47.67" y1="115.04" x2="47.06" y2="115.48"/>
      <path class="cls-2" d="M43.26,119.23c.29,2.83,1.69,5.01,3.73,5.35,1.86.59,12.57-2.48,12.57-2.48,0,0-6.25,2.9-10.04,3.29s-4.09-.24-4.09-.24c0,0-1.67-1.23-2.17-2.8s.02-3.13.02-3.13Z"/>
      <path class="cls-2" d="M72.77,139.24c-.05.11-2.02,5.46-2.23,6.96s.08,2.43.52,3.57,2.1,2.46,2.73,2.75c.8.54,3.56.48,4.12.42s-2.4.62-2.4.62l-3.17-.83-2.21-2.81s-.54-1.1-.38-3.09,3-7.6,3-7.6Z"/>
      <path class="cls-22" d="M88.77,147.71c.79,0,.59,2.12-1.11,3.04-1.23.67-3.6.73-4.7,1.17s-1.75,1.14-2.01,1.74c-.36,1,.57,2.03.98,2.37"/>
      <path class="cls-22" d="M83.98,157.75c.08.46.14,1.01-.47,1.33-1.34.7-3.28-1.72-3.28-1.72l-.99.69c.24.46,2.45,3.09,4.65,2.35s1.53-2.69,1.03-3.84l-.94,1.18Z"/>
      <path class="cls-17" d="M85.66,123.2c1.6-1.19,19.37-16.41,25.48-14.95,1.07,1.29-.9,2.91-.91,3.43-.29-.74-2.91,1.12-5.53,4.49-3.47,4.46-8.24,10.78-10.3,14.41-1.67,4.02-8.9,4.38-10.48,2.8s-.35-8.63,1.74-10.18Z"/>
      <path class="cls-17" d="M120.92,101.88s-2.44-.19-5.05.28c-.64-2.44-19.56,2.05-27.23,9.11-6.41,4.91-11.54,5.72-13.11,3.85-1.57-1.87-2.57-6.44.19-8.28,2.76-1.84,9.86-4.26,15.31-5.59,5.45-1.33,25.45-4.58,26.87-2.54,1.42,2.03,3.01,3.17,3.01,3.17Z"/>
      <path class="cls-17" d="M83.77,126.71c-2.11,0-3.74-.94-4.65-1.9-1.89-2,1.06-6.61,3.69-9,2.64-2.39,4.66-5.74,10.18-7.81s19.13-9.73,20.89-7.53,1.99,2.75,1.99,2.75c0,0-.04.56-2.71,1.35-.88-.81-5.42,2.82-10.33,7.28"/>
      <path class="cls-17" d="M120.27,96.84s-1.33-1.57-4.44-1.42-21.38,1.89-30.02,6.15c-2.95,1.46-5.86,1.41-7.45,1.18-5.95-.86-7.37-7.57-3.29-10.02,4.08-2.45,27.07-1.11,27.07-1.11l19.79.95-1.65,4.26Z"/>
      <path class="cls-17" d="M123.2,94.98s-3-1.78-4.24-2.26-.05-1.09-2.34-1.46c-10.75-1.5-29.7-1.95-33.67-2.13-3.97-.19-10.9,1.07-11.25-3.64-.36-4.71,3.35-7.08,7.79-7.44,4.43-.36,22.23,4.94,25.04,5.68s13.86,5.81,13.86,5.81l7.31,3.67-2.5,1.77Z"/>
      <path class="cls-17" d="M121.73,91.63s-1.04-.79-2.15-1.69c-1.07-3.42-25.62-12.3-28.98-13.83s-12.1-2.86-10.48-7.42,9.89-3.05,15.47-1.22c5.59,1.83,21.96,14.05,25.3,19.18,2.02,2.17,2.95,2.61,2.95,2.61l-2.11,2.37Z"/>
      <path class="cls-17" d="M124.74,90.15s-.26,1.45-1.39-1.36c-1.94-4.82-15.35-20.92-21.2-23.99-1.46-1.51-8.28-3.69-9.29-7.66-1.01-3.98,4.66-9.34,10.67-4.84,5.37,3.29,15.81,22.63,17.97,27.34,2.62,5.69,4.28,7.88,4.25,9.27.37,1.62-1.01,1.24-1.01,1.24Z"/>
      <path class="cls-17" d="M123.36,90.81c1.81-4.37-5.9-29.99-9.67-34.46-3.76-4.48-3.7-11.68-2-13.2,1.71-1.52,7.14-1.23,10.5,5.49s1.89,26.87,2.37,31.43c.49,4.56,1.44,4.35,1.44,4.35l-2.64,6.38Z"/>
      <path class="cls-11" d="M116.56,89.86s-22.31-4.87-26.37-5.24-11.52-.54-11.52-.54l14.96,1.87,22.92,3.91Z"/>
      <path class="cls-11" d="M124.14,89.93s-11.22-7.76-14.28-9.83c-3.05-2.07-8.16-5.15-12.53-7.37-4.37-2.21-10.31-2.81-10.31-2.81,0,0,8.04,2.24,15.66,6.6,7.62,4.36,21.45,13.4,21.45,13.4Z"/>
      <path class="cls-11" d="M121.92,83.7s-6.44-11.56-8.27-14.29c-1.84-2.72-6.9-8.78-8.58-9.96-1.67-1.18-6.39-3.55-6.39-3.55,0,0,4.62,2.41,8.91,6.69s14.34,21.11,14.34,21.11Z"/>
      <path class="cls-11" d="M123.67,81.59s-.59-3.73-1.03-7.38-1.2-14.33-1.99-17.58-4.44-8.78-4.44-8.78c0,0,3.23,7.28,3.84,9.17s1.66,12.14,1.94,15.7c.28,3.56,1.68,8.86,1.68,8.86Z"/>
      <path class="cls-11" d="M88.91,130.29s1.1-4.69,2.48-6.25c1.38-1.56,14-11.88,14-11.88,0,0-12.37,11.14-13.54,12.52s-2.93,5.61-2.93,5.61Z"/>
      <path class="cls-11" d="M107.76,104.79s-11.22,6.91-13.92,8.52-5.77,2.57-7.57,4.64c-1.8,2.07-2.78,4.92-2.78,4.92,0,0,3.04-4.33,5.31-5.71,2.27-1.38,18.97-12.37,18.97-12.37Z"/>
      <path class="cls-11" d="M113.64,93.42c-.13.04-12.83-.16-20.55.24s-10.72,2.31-10.72,2.31c0,0,10.85-1.76,14.07-1.96s17.2-.6,17.2-.6Z"/>
      <path class="cls-11" d="M80.48,111s8.21-3.84,10.12-4.5,20.19-6.34,20.19-6.34l-16.87,5.73-13.44,5.11Z"/>
      <path class="cls-22" d="M120.27,96.84s-1.33-1.57-4.44-1.42-21.38,1.89-30.02,6.15c-2.95,1.46-5.86,1.41-7.45,1.18-5.95-.86-7.37-7.57-3.29-10.02,4.08-2.45,27.07-1.11,27.07-1.11l19.79.95-1.65,4.26Z"/>
      <path class="cls-22" d="M123.2,94.98s-3-1.78-4.24-2.26-.05-1.09-2.34-1.46c-10.75-1.5-29.7-1.95-33.67-2.13-3.97-.19-10.9,1.07-11.25-3.64-.36-4.71,3.35-7.08,7.79-7.44,4.43-.36,22.23,4.94,25.04,5.68s13.86,5.81,13.86,5.81l7.31,3.67-2.5,1.77Z"/>
      <path class="cls-22" d="M121.73,91.63s-1.04-.79-2.15-1.69c-1.07-3.42-25.62-12.3-28.98-13.83s-12.1-2.86-10.48-7.42,9.89-3.05,15.47-1.22c5.59,1.83,21.96,14.05,25.3,19.18,2.02,2.17,2.95,2.61,2.95,2.61l-2.11,2.37Z"/>
      <path class="cls-22" d="M124.74,90.15s-.26,1.45-1.39-1.36c-1.94-4.82-15.35-20.92-21.2-23.99-1.46-1.51-8.28-3.69-9.29-7.66-1.01-3.98,4.66-9.34,10.67-4.84,5.37,3.29,15.81,22.63,17.97,27.34,2.62,5.69,4.28,7.88,4.25,9.27.37,1.62-1.01,1.24-1.01,1.24Z"/>
      <path class="cls-22" d="M122.77,82.19c.12-.28-6.44-22.72-9.07-25.84-3.76-4.48-3.7-11.68-2-13.2,1.71-1.52,7.14-1.23,10.5,5.49s1.89,26.87,2.37,31.43c.49,4.56,1.44,4.35,1.44,4.35"/>
      <path class="cls-22" d="M85.66,123.2c1.6-1.19,19.37-16.41,25.48-14.95,1.07,1.29-.9,2.91-.91,3.43-.29-.74-2.91,1.12-5.53,4.49-3.47,4.46-8.24,10.78-10.3,14.41-1.67,4.02-8.9,4.38-10.48,2.8s-.35-8.63,1.74-10.18Z"/>
      <path class="cls-22" d="M120.92,101.88s-2.44-.19-5.05.28c-.64-2.44-19.56,2.05-27.23,9.11-6.41,4.91-11.54,5.72-13.11,3.85-1.57-1.87-2.57-6.44.19-8.28,2.76-1.84,9.86-4.26,15.31-5.59,5.45-1.33,25.45-4.58,26.87-2.54,1.42,2.03,3.01,3.17,3.01,3.17Z"/>
      <path class="cls-22" d="M83.69,126.71c-2.07-.03-3.67-.95-4.57-1.89-1.89-2,1.06-6.61,3.69-9,.56-.51,1.1-1.06,1.64-1.64"/>
      <path class="cls-14" d="M109.81,112.67c2.29,1.95,10.37,2.8,16.23-4.5,2.65-1.27,6.38,2.34,6.94,1.67s-1.79-7.87-1.39-11.73.2-10.49-6.55-12.15c-5.84,7.59-10.86,16.59-15.22,26.72"/>
      <path class="cls-3" d="M121.43,111.95c-6.41,2.17-9.95.96-7.62-7.17-1.3.65-2.64,3.7-3.99,7.77l1.58,1.14c4.3.98,7.36-.05,10.02-1.74Z"/>
      <circle class="cls-7" cx="120.54" cy="101.72" r="2.99"/>
      <circle class="cls-13" cx="125.94" cy="97.21" r="1.23"/>
      <path class="cls-3" d="M131.61,98.96c-.34,4.35,2.47,10.31,1.37,10.87-.69.36-2.69-1.13-3.78-1.64-.95-.45-2.07-.08-3.09-.13,1.28-1.33,3.96-5.83,4.94-8.8.74-1.38.65-1.5.56-.3Z"/>
      <path class="cls-12" d="M125.79,107.24l-.13.03-.13.03.13-.03.13-.03Z"/>
      <circle class="cls-6" cx="122.07" cy="100.93" r=".3"/>
      <circle class="cls-6" cx="125.73" cy="103.86" r=".3"/>
      <circle class="cls-6" cx="128.37" cy="102.76" r=".3"/>
      <circle class="cls-6" cx="130.4" cy="104.45" r=".3"/>
      <circle class="cls-6" cx="130.09" cy="99.8" r=".3"/>
      <circle class="cls-6" cx="131.19" cy="103.17" r=".3"/>
      <circle class="cls-6" cx="124.14" cy="103.46" r=".3"/>
      <circle class="cls-6" cx="110.48" cy="112.49" r=".3"/>
      <circle class="cls-6" cx="119.11" cy="103.48" r=".3"/>
      <circle class="cls-6" cx="117.24" cy="103.06" r=".3"/>
      <circle class="cls-6" cx="119.24" cy="101.26" r=".3"/>
      <circle class="cls-6" cx="117.25" cy="101.52" r=".3"/>
      <circle class="cls-6" cx="121.4" cy="102.55" r=".3"/>
      <circle class="cls-6" cx="121.44" cy="104.04" r=".3"/>
      <circle class="cls-6" cx="123.35" cy="104.87" r=".3"/>
      <circle class="cls-6" cx="119.63" cy="99.68" r=".3"/>
      <circle class="cls-6" cx="119.13" cy="97.86" r=".3"/>
      <circle class="cls-6" cx="125.05" cy="101.98" r=".3"/>
      <circle class="cls-6" cx="127.16" cy="101.23" r=".3"/>
      <circle class="cls-6" cx="124.01" cy="100.44" r=".3"/>
      <circle class="cls-6" cx="128.76" cy="100.12" r=".3"/>
      <circle class="cls-6" cx="131.01" cy="100.63" r=".3"/>
      <circle class="cls-6" cx="130.24" cy="102.02" r=".3"/>
      <circle class="cls-6" cx="122.5" cy="100.16" r=".3"/>
      <circle class="cls-6" cx="119.57" cy="105.12" r=".3"/>
      <circle class="cls-6" cx="120.73" cy="100.24" r=".3"/>
      <circle class="cls-6" cx="120.27" cy="98.31" r=".3"/>
      <path class="cls-3" d="M126.65,86.21c-.46-.36-.63-1.29-.77-1.78s-.23,1.35-.31,1.24c-.23-.29-.5-1.16-.66-1.17-.29-.02.07,1.58-.07,1.68s-.99-1.13-1.14-1.06c-.13.06.64,1.35.43,1.58-.56.63-2.23-.47-2.45-.14-.4.6.93,2.04.51,2.41s-2.03-.91-2.41-.55.88,2.34.61,2.68-2.23-.6-2.54-.21,1.72,1.21,1.32,1.74-2.34-.74-2.32-.18,1.2,1.8.79,2.37-2.15-.6-2.41-.1,1.24,1.89.97,2.32-2.36.12-2.63.5,1.24,2.27,1.02,2.69-1.72.03-2.35.95,1.51,1.81.93,2.97-2.04.34-2.61,1.64c-.14.32.94,1.22.64,2-.25.64-1.89.52-2.45,1.21-.31.38.95.63.98,1.21.01.29-2.59.58-2.89.93s2.3.39,2.28.58c-.03.24-2.24,1.76-1.94,2.22s2.13-1.19,3.04-1.06l.37.3c3.64-10.63,9.29-19.82,15.84-26.91,0,0,.69.32.23-.04"/>
      <path class="cls-22" d="M126.65,86.21c-.54-.22-.63-1.29-.77-1.78s-.23,1.35-.31,1.24c-.23-.29-.5-1.16-.66-1.17-.29-.02.07,1.58-.07,1.68s-.99-1.13-1.14-1.06c-.13.06.64,1.35.43,1.58-.56.63-2.23-.47-2.45-.14-.4.6.93,2.04.51,2.41s-2.03-.91-2.41-.55.88,2.34.61,2.68-2.23-.6-2.54-.21,1.72,1.21,1.32,1.74-2.34-.74-2.32-.18,1.2,1.8.79,2.37-2.15-.6-2.41-.1,1.24,1.89.97,2.32-2.36.12-2.63.5,1.24,2.27,1.02,2.69-1.72.03-2.35.95,1.51,1.81.93,2.97-2.04.34-2.61,1.64c-.14.32.94,1.22.64,2-.25.64-1.89.52-2.45,1.21-.31.38.95.63.98,1.21.01.29-2.59.58-2.89.93s2.3.39,2.28.58c-.03.24-2.24,1.76-1.94,2.22s1.73-1.39,2.64-1.26c2.29,1.95,10.37,2.8,16.23-4.5,2.65-1.27,6.38,2.34,6.94,1.67s-1.79-7.87-1.39-11.73c.37-3.57.4-9.7-4.94-11.89Z"/>
      <g>
        <path class="cls-23" d="M149.96,62.27c3.2-3.98,4.2-8.3,2.58-10.95-1.26-2.06-3.94-2.86-5.57-2.78-8.3.46-13.84,28.39-15.3,36.22"/>
        <line class="cls-23" x1="131.98" y1="58.28" x2="144.06" y2="63.05"/>
        <path class="cls-23" d="M159.66,88.92c-1.58,4.9-4.6,8.07-7.65,8.07-2.36,0-4.45-1.91-5.24-3.38-4.04-7.48,13.79-25.19,19.46-30.62"/>
        <line class="cls-23" x1="145.81" y1="76.2" x2="157.71" y2="81.43"/>
        <line class="cls-23" x1="148.58" y1="66.6" x2="146.06" y2="72.14"/>
        <line class="cls-23" x1="144.74" y1="68.06" x2="149.95" y2="70.43"/>
      </g>
    </g>
  </g>
</svg>
